<svg width="0" height="0" class="hidden">
  <symbol fill="none" xmlns="http://www.w3.org/2000/svg" viewBox="0 0 20 20" id="icon_search">
    <path fill-rule="evenodd" clip-rule="evenodd" d="M13.667 8.74984C13.667 11.4652 11.4657 13.6665 8.75032 13.6665C6.03492 13.6665 3.83365 11.4652 3.83365 8.74984C3.83365 6.03444 6.03492 3.83317 8.75032 3.83317C11.4657 3.83317 13.667 6.03444 13.667 8.74984ZM12.7968 14.5643C11.6497 15.3641 10.2548 15.8332 8.75032 15.8332C4.8383 15.8332 1.66699 12.6619 1.66699 8.74984C1.66699 4.83782 4.8383 1.6665 8.75032 1.6665C12.6623 1.6665 15.8337 4.83782 15.8337 8.74984C15.8337 10.2544 15.3646 11.6494 14.5646 12.7966L17.9675 16.1994L16.1997 17.9672L12.7968 14.5643Z" fill="white" fill-opacity="0.5"></path>
  </symbol>
  <symbol xmlns="http://www.w3.org/2000/svg" fill="none" viewBox="0 0 179 42" id="logo">
    <path fill="#CAA77A" d="M173 13.72c-.85-3.846-1.6-7.872-7.15-10.557a29.602 29.602 0 0 0-4.9-1.532c-.18.08.3.51.3.51l-1.62-.14c-.62 0-1.58-.26-1.82-1.001-.55.45 0 1.002.13 1.352a2.832 2.832 0 0 0-2.24-.25 1.798 1.798 0 0 0-1 .54c.1.09 1.36 0 1.36.271-.52-.028-1.04.06-1.52.26a1.525 1.525 0 0 0-.91.812c.11.08.49-.09.82-.09.286-.014.571.055.82.2 0 0-.1 0-.15.06-1.21.32-2 .941-2.12 1.723a3.447 3.447 0 0 1 2.27-1.092 4.52 4.52 0 0 0-1.44 1.683c-1.3 2.303-1.43 4.346-.4 7.441a3.802 3.802 0 0 1 0 1.533c.3 0 .36-.541.5-.3.105.438.081.897-.07 1.321.39.07.45-.66.57-.4.063.338.022.688-.12 1.001.28 0 .38-.35.4-.14.005.09.005.18 0 .27-2 1.633-2.44 3.406-4.56 6.51-2.12 3.106-1.73 4.778-.58 5.6a4.852 4.852 0 0 0 1.76.77 2.997 2.997 0 0 0-2.724 1.167 3.008 3.008 0 0 0-.396 2.94c.2.485.55.892 1 1.162a12.615 12.615 0 0 0-4.11 3.125c3.89 0 6.95 1.002 8.89.07a1.64 1.64 0 0 0 .82-1.232 32.64 32.64 0 0 1 3.38.551 9.073 9.073 0 0 0 3.1.12 30.91 30.91 0 0 0-2.67 2.905 12.764 12.764 0 0 0 5.92-.901 4.294 4.294 0 0 1 2.7-.551c3.21.29 7.92.71 9.41-.631 2.06-1.853 1.06-3.896-.59-4.587a10.125 10.125 0 0 0-2.56-.662c1.26-6.85-.38-18.95-.58-19.83"></path>
    <path fill="#CAA77A" d="M153.87 21.342a6.587 6.587 0 0 0 .08 3.305 3.753 3.753 0 0 1-1 1.953 4.44 4.44 0 0 0-.68 1.122 3.098 3.098 0 0 0 0 2.163s-1 .551-1.27.662a6.292 6.292 0 0 1-1.24-1.162c-.86-1.122-1.55-2.474.58-5.6 2.13-3.124 2.49-4.847 4.51-6.49h.07a2.198 2.198 0 0 1-.06.471c-.24 1.192-.74 2.404-.95 3.596"></path>
    <path fill="#3F281C" d="M156.34 34.693c-.13-.39-.19-1.863-.57-2.003-1.2-.4-3.38 1.763-5.11 1.392a2.458 2.458 0 0 1-2.24-2.143 3.269 3.269 0 0 0 .13 2.764 1.304 1.304 0 0 0 .82.661c-1.07.521-3.63 2.274-4 3.125.76 0 2 .12 2.32.14 1.64.14 5.2.852 6.6-.06a1.615 1.615 0 0 0 .71-1.222c1.141.083 2.272.267 3.38.551a8.375 8.375 0 0 0 3.1.12 14.482 14.482 0 0 1 4.8-3.355c-3 .801-3.78 1.943-4.49 2.143-1.36.411-4.68.15-5.44-2.113" opacity=".23"></path>
    <path fill="#F6D72C" d="M152.17 30.276a5.735 5.735 0 0 1 3.52 1.663c1.14 1.252 1.89 2.754 4.51 3.005a11.69 11.69 0 0 0 5.44-.451 15.238 15.238 0 0 1 8-.831c.45-2.221.754-4.47.91-6.73.27-2.936.72-9.656-.38-11.309-.16.45-.15.45 0 0a1.119 1.119 0 0 0-.11-1.112c-.39-.55-.86-1.101-.95-.71-1 5.187-6.8 6.52-11.12 6.52-3.77 0-5.77-.892-7.24-2.204l.07-.33a2.952 2.952 0 0 0 0-.461l-.1.07c-1.43 1.242-2 2.564-3.2 4.517-.15-.07-.42.21-.55.38-.13.171-.28.441-.08.642a26.563 26.563 0 0 1 2.8 2.714v-.2a.202.202 0 0 0 0-.06v-.06a.216.216 0 0 0 0-.08.272.272 0 0 0 0-.09v-.11a.292.292 0 0 0 0-.111v-.12a1.195 1.195 0 0 0 0-.28.273.273 0 0 1 0-.09V24.216a.166.166 0 0 1 0-.07v-1.713c0-.12 0-.06 0 0a1.008 1.008 0 0 0 0 .19.291.291 0 0 1 0 .11v.511a1.008 1.008 0 0 0 0 .19c-.006.07-.006.14 0 .21-.007.09-.007.181 0 .271a.18.18 0 0 1 0 .08.139.139 0 0 1 0 .07V24.297a.34.34 0 0 1 0 .091.825.825 0 0 1 0 .28V25.099a.216.216 0 0 0 0 .08v.24a.269.269 0 0 1 0 .08.466.466 0 0 0-.06.111l-.16.24-.08.12-.17.22-.18.241"></path>
    <path fill="#F3D7B2" d="M153.78 9.233a2.005 2.005 0 0 1 1.79-1.733c1.2-.21 1.58-2.003 2.73-2.003.22 0 .72-.12.82-.31.33-.601-.42-.862 0-.792.42.07 2.78.882 3.59 1.002 2.35.25 4.55.701 5.94 3.155a6.324 6.324 0 0 1 .74 3.806 5.68 5.68 0 0 1-3 4.467c-2.73 1.833-10 1.292-11.67-1.713.06-2.343-1.41-3.746-.89-5.819"></path>
    <path fill="#9D7B51" d="M160.32 12.088c-.95-.461-2 1.372-2.07 2.674-.1 2.664 3.61 3.295 5.69 2.003 2.08-1.292-.45-5.449-2.1-4.798"></path>
    <path fill="#9D7B51" d="M153.76 8.722c-.9 1.903.25 5.73 1 6.48a7.328 7.328 0 0 0 2.24-1.091c3.75-2.775 1.38-8.083 1.13-8.333s-3.25 1.692-3.59 1.752c-.34.06-.61.802-.8 1.192M163 5.667c-1.71 8.013 5 9.716 5.69 8.774.42-.6 1.26-3.415.16-5.318a13.149 13.149 0 0 0-1.79-2.224c-1.66.26-3.67-2.794-4-1.182"></path>
    <path stroke="#9D7B51" stroke-linecap="round" stroke-linejoin="round" stroke-width=".46" d="M156.35 17.716v.761M157.13 18.107v.761"></path>
    <path fill="#D3D2D2" d="M149 35.625c-.59.58-2.24 1.322-3 2.003-.21.18-.73.61-.7.921 0 .09.08.06.13 0a8.988 8.988 0 0 1 2 0c.57.09 3 .752 3.33.401.17-.15.11-.41.07-.6a4.478 4.478 0 0 0-1.53-2.405c-.1-.11-.27-.4-.36-.31"></path>
    <path fill="#F6D72C" d="M176.57 23.035h-.92a8.363 8.363 0 0 0-4.86 1.582l-.65-.39a50.036 50.036 0 0 1-4.2-2.945 15.729 15.729 0 0 0 2.11-.5 11.616 11.616 0 0 0 3.74-1.863 6.785 6.785 0 0 0 2.34-3.296 27.8 27.8 0 0 1 2.21 6.26c.21 0 .35 0 .52.48.17.482.12.682-.29.702"></path>
    <path fill="#3F281C" d="M152.66 26.19a3.003 3.003 0 0 0 .78-2.684 3.5 3.5 0 0 1 .4.57c.09.209.132.435.12.662a2.718 2.718 0 0 1-.36 1.001c-.19.3-.45.631-.63.861a2.777 2.777 0 0 1-.3-.41M173.09 13.77a6.794 6.794 0 0 1-2.21 3.866c.76-5.769-1.46-10.016-4-11.949a9.59 9.59 0 0 0-5.15-1.943c-.18 0-.84-.09-.75-.31-.29 0-.36.28-.64.31-.28.03-.58-.51-1.18-.34.27.09 0 .41-.27.55-.27.14-.75 0-.75-.21-.21.2 0 .411-.17.451-.17.04-.8-.45-1.16 0 .46 0 .33.35.18.41a12.645 12.645 0 0 0-3 1.914 4.399 4.399 0 0 1 1.44-1.663 3.398 3.398 0 0 0-2.31 1.042c.16-.771.91-1.402 2.16-1.703 0 0 .12 0 .13-.06a1.497 1.497 0 0 0-.82-.2c-.34 0-.72.18-.82.09a1.593 1.593 0 0 1 .91-.812c.481-.2 1-.288 1.52-.26 0-.27-1.26-.18-1.36-.27a1.72 1.72 0 0 1 1-.541 2.827 2.827 0 0 1 2.24.25c-.17-.32-.69-.901-.13-1.352.24.761 1.19 1.002 1.82 1.002l1.62.14s-.49-.43-.3-.511c1.679.377 3.322.9 4.91 1.562 5.49 2.665 6.24 6.671 7.09 10.537Z" opacity=".23"></path>
    <path fill="#3F281C" d="M174.13 15.603a6.67 6.67 0 0 1-1.92 2.935c.17-.811-.07-1.322-.8-1.433a6.588 6.588 0 0 0 1.66-3.325c.08-.39.56.17.95.711a1.117 1.117 0 0 1 .11 1.112ZM169.79 26.11c-.53.07-.69 1.432-3.58.931a33.965 33.965 0 0 1-3.83-1.272c-.78-.18-1.09.18-2.33.19a12.326 12.326 0 0 1-3.14-.37c-1.41-.4-2.34-1.002-2.52-.571-.38.851 2.33 1.422 4.83 1.492 1.47 0 2.62-.4 3-.26 1.65.63 3.59 1.773 5.63 1.582 1.14-.09 3-1.863 1.94-1.723Z" opacity=".23"></path>
    <path stroke="#2C2218" stroke-linecap="round" stroke-linejoin="round" stroke-width=".31" d="M155.81 18.918c-.156.16-.26.361-.3.58M157.13 19.58a1.832 1.832 0 0 0-.17.64M159.26 20.11c-.064.211-.091.431-.08.651M160.13 20.22a2.853 2.853 0 0 0 0 .761M161 20.28a3.16 3.16 0 0 0 0 .702M165.38 20.01c.082.187.133.386.15.59M166.34 19.82c.078.174.128.36.15.55M171.19 17.346c.166.115.317.25.45.4M171.64 16.845c.187.102.362.226.52.37M172 16.404c.161.063.312.147.45.25M153.17 23.245c.227.242.438.5.63.771"></path>
    <path stroke="#2C2218" stroke-linecap="round" stroke-linejoin="round" stroke-width=".31" d="M151.46 21.923c-.15-.08-.44.21-.55.37-.11.16-.28.441-.08.642m2.8 2.714v-.2a.201.201 0 0 0 0-.06v-.06a.216.216 0 0 0 0-.08.272.272 0 0 0 0-.091v-.11a.34.34 0 0 0 0-.11v-.12a1.195 1.195 0 0 0 0-.281.272.272 0 0 1 0-.09V24.217a.139.139 0 0 1 0-.07v-1.553c0-.06.47-2.434.69-3.135 0 0-.67 3.005-.67 3.135a1.008 1.008 0 0 0 0 .19.34.34 0 0 1 0 .11v.511a1.008 1.008 0 0 0 0 .19c-.006.07-.006.14 0 .21-.008.09-.008.181 0 .271a.216.216 0 0 1 0 .08.166.166 0 0 1 0 .07V24.457a.34.34 0 0 1 0 .091.826.826 0 0 1 0 .28V25.259a.216.216 0 0 0 0 .08v.24a.358.358 0 0 1 0 .08.464.464 0 0 0-.06.111c0 .08-.11.15-.16.24l-.08.12-.17.22-.18.241M155.67 31.939c1.14 1.252 1.89 2.754 4.52 3.005 1.823.28 3.687.126 5.44-.451a14.728 14.728 0 0 1 8-.852M168 20.822c-1.98.563-4.032.83-6.09.79a12.897 12.897 0 0 1-7.69-3.004c.06-.42.32-.681.46-.54 1.47 1.311 3.47 2.193 7.24 2.193 4.32 0 10.11-1.332 11.12-6.52.08-.401.56.15.95.71a1.183 1.183 0 0 1 .11 1.122 6.813 6.813 0 0 1-2.3 3.346"></path>
    <path stroke="#2C2218" stroke-linecap="round" stroke-linejoin="round" stroke-width=".31" d="m154.74 18.107.07-.33a2.382 2.382 0 0 0 0-.782c0-.22-.12.18-.4.14.13-.316.172-.662.12-1.001-.12-.26-.17.47-.57.4a2.31 2.31 0 0 0 .07-1.321c-.13-.25-.19.27-.5.3a3.767 3.767 0 0 0 0-1.532c-1-3.105-.9-5.159.4-7.462a4.515 4.515 0 0 1 1.44-1.683M161.46 38.059a9.276 9.276 0 0 1-3.1-.12 21.613 21.613 0 0 0-3.33-.541M158 2.392c-.17-.32-.69-.901-.13-1.352.24.761 1.19 1.002 1.82 1.002l1.62.14s-.49-.42-.3-.511c1.675.368 3.314.881 4.9 1.532 5.54 2.685 6.29 6.721 7.15 10.557M145.81 38.258c1.6.14 3.21-.61 4.81-.47"></path>
    <path stroke="#2C2218" stroke-linecap="round" stroke-linejoin="round" stroke-width=".31" d="M145.55 38.39c1-.802 3-1.854 4.37-1.734"></path>
    <path stroke="#2C2218" stroke-linecap="round" stroke-linejoin="round" stroke-width=".31" d="M149.11 35.675c.78.72 1.79 1.843 1.67 3.165M152 30.266a5.547 5.547 0 0 1 3.8 1.893M151.46 21.923c1.2-2.003 1.76-3.335 3.33-4.617"></path>
    <path stroke="#2C2218" stroke-linecap="round" stroke-linejoin="round" stroke-width=".31" d="M151.59 34.824c-2.67 0-6.6 3.715-6.33 3.715 3.89 0 6.95 1.002 8.89.07a1.885 1.885 0 0 0 .64-2.453M151.46 30.156a3.066 3.066 0 0 0-3.26 2.592 3.08 3.08 0 0 0 .14 1.505c.117.448.404.833.8 1.071M155.38 4.826a3.4 3.4 0 0 0-2.27 1.072c.16-.781.91-1.402 2.16-1.703 0 0 .12 0 .13-.06a1.497 1.497 0 0 0-.82-.2c-.34 0-.72.18-.82.09a1.593 1.593 0 0 1 .91-.811 3.477 3.477 0 0 1 1.52-.26c0-.271-1.26-.181-1.36-.271a1.72 1.72 0 0 1 1-.541 2.827 2.827 0 0 1 2.24.25"></path>
    <path fill="#241A14" d="M159.53 13.97c-.21 1.453.5 1.793 1.26 1.853a1.643 1.643 0 0 0 1.66-1.432 1.643 1.643 0 0 1 0-.55.923.923 0 0 1-1.15.25 3.044 3.044 0 0 1-1.72-.12"></path>
    <path fill="#D7838B" d="M159.56 15.052a1.095 1.095 0 0 1 1.22 0 1.256 1.256 0 0 1 1.36.07 1.375 1.375 0 0 1-1.36.732 1.285 1.285 0 0 1-1.22-.802Z"></path>
    <path stroke="#2C2218" stroke-linecap="round" stroke-linejoin="round" stroke-width=".31" d="M163 12.568c-.45.441-1.22 1.763.39 3.356"></path>
    <path stroke="#2C2218" stroke-linecap="round" stroke-linejoin="round" stroke-width=".31" d="M159.53 13.98c-.22 1.403.51 1.813 1.32 1.853a1.67 1.67 0 0 0 1.6-1.392"></path>
    <path stroke="#2C2218" stroke-linecap="round" stroke-linejoin="round" stroke-width=".31" d="M159.6 15.042a1.118 1.118 0 0 1 1.19 0 1.277 1.277 0 0 1 1.29 0M161.24 14.08a3.35 3.35 0 0 1-1.72-.11M161.29 12.729a3.145 3.145 0 0 0 0 1.392 1.096 1.096 0 0 0 1.14-.21"></path>
    <path fill="#fff" d="M165.91 9.383a1.44 1.44 0 0 1 1.47 1.422v.1a1.472 1.472 0 0 1-1.465 1.352 1.47 1.47 0 0 1-1.465-1.351v-.11a1.448 1.448 0 0 1 1.47-1.422"></path>
    <path fill="#2C2218" d="M165.38 10.845a.447.447 0 0 1 .278-.416.449.449 0 0 1 .613.329.446.446 0 0 1-.191.462.449.449 0 0 1-.25.076.442.442 0 0 1-.45-.45Z"></path>
    <path stroke="#2C2218" stroke-linecap="round" stroke-linejoin="round" stroke-width=".31" d="M165.91 9.393a1.44 1.44 0 0 1 1.47 1.422v.09a1.472 1.472 0 0 1-1.465 1.352 1.47 1.47 0 0 1-1.465-1.351v-.1a1.443 1.443 0 0 1 1.46-1.413Z"></path>
    <path fill="#fff" d="M156.57 9.143a1.44 1.44 0 0 0-1.47 1.422v.09a1.473 1.473 0 0 0 1.465 1.351 1.474 1.474 0 0 0 1.465-1.351v-.09a1.441 1.441 0 0 0-1.47-1.422"></path>
    <path fill="#2C2218" d="M157 10.705a.455.455 0 0 0-.278-.416.45.45 0 0 0-.422.791.45.45 0 0 0 .25.076.437.437 0 0 0 .418-.277.45.45 0 0 0 .032-.174Z"></path>
    <path stroke="#2C2218" stroke-linecap="round" stroke-linejoin="round" stroke-width=".31" d="M156.57 9.153a1.44 1.44 0 0 0-1.47 1.422v.09a1.473 1.473 0 0 0 1.465 1.351 1.474 1.474 0 0 0 1.465-1.351v-.09a1.448 1.448 0 0 0-.908-1.32 1.436 1.436 0 0 0-.552-.102Z"></path>
    <path fill="#241A14" d="M159.65 12.158c0-.35.68-.661 1.56-.711.88-.05 1.61.2 1.64.55.03.351-.68.662-1.56.712-.88.05-1.62-.2-1.64-.551Z"></path>
    <path stroke="#2C2218" stroke-linecap="round" stroke-linejoin="round" stroke-width=".91" d="M158.41 5.687c-4.89.511-5.81 5.91-5.81 5.91M162.45 5.287c4.7 0 7 4.657 7 4.657"></path>
    <path fill="#E8DFAF" d="M160.65 15.914a.479.479 0 0 0-.29-.06.602.602 0 0 0-.59.61.515.515 0 0 0 .1.291.91.91 0 1 0 1.24 1.322.668.668 0 0 0 .4.13.598.598 0 0 0 .59-.61.625.625 0 0 0-.36-.532.596.596 0 0 0-.19-.901v-.08a.479.479 0 0 0-.49-.45.489.489 0 0 0-.41.27"></path>
    <path fill="#fff" d="M161.63 17.025c-.13.15 0 .18 0 .26.09.07.162.159.21.261.07.21-.24.45-.45.39-.21-.06-.13-.17-.25-.17s-.18.17-.25.241a.402.402 0 0 1-.305.136.406.406 0 0 1-.305-.136c-.07-.08-.11-.18-.17-.26-.06-.08-.15 0-.28-.11a.309.309 0 0 1-.19-.321c0-.18.27-.17.4-.22.13-.05.33-.18.27-.331-.06-.15-.23-.13-.19-.33.04-.2.23-.17.35-.21a.864.864 0 0 0 .36-.181c.16-.12.27-.15.41 0 .14.15.1.24 0 .44a.355.355 0 0 0 0 .451c.12.12.22 0 .35.11l.04-.02Z" opacity=".6"></path>
    <path stroke="#DEB98E" stroke-linecap="round" stroke-linejoin="round" stroke-width=".31" d="M161 18.017a.619.619 0 0 0 .95 0 .567.567 0 0 0 .093-.635.564.564 0 0 0-.563-.306M160.91 18.277c-.53.06-1 .21-1.32-.41-.32-.621.06-1.272.7-1.142M159.82 16.363c.15-.48.89-.72 1.09-.15M160.81 15.753a.867.867 0 0 1 .46 0c.22.08.33.531.11.661M161.57 16.224c.28 0 .41.721.13.791"></path>
    <path stroke="#DEB98E" stroke-linecap="round" stroke-linejoin="round" stroke-width=".31" d="M160.66 16.915c0 .18.17.641-.15.651"></path>
    <path stroke="#DEB98E" stroke-linecap="round" stroke-linejoin="round" stroke-width=".31" d="M160.7 17.396c.07-.22.41-.22.56-.07"></path>
    <path fill="#B7B2AF" d="M164.53 20.2a3.494 3.494 0 0 0-1.53 1.533 9.766 9.766 0 0 1-2.11-2.003 2.709 2.709 0 0 1-.1-2.745c.32-.22.55.45 1.19 1.002.86.791 2.21 1.512 2.53 2.203"></path>
    <path fill="#CAA77A" d="M173.84 31.939a9.292 9.292 0 0 1-7.17-4.788c-1.69-2.824-2.89-4.066-3.69-5.388l.07-.15a3.636 3.636 0 0 1 1.43-1.393c.48.38.95.741 1.42 1.102a46.36 46.36 0 0 0 4.2 2.945l.65.39a8.363 8.363 0 0 1 4.86-1.582h.92c.107.614.204 1.242.29 1.883.55 4.006-.55 7.181-3 7.01"></path>
    <path stroke="#2C2218" stroke-linecap="round" stroke-linejoin="round" stroke-width=".31" d="M164.52 20.21a43.443 43.443 0 0 0 8.75 5.72M164.52 20.21a3.499 3.499 0 0 0-1.52 1.533 9.766 9.766 0 0 1-2.11-2.003 2.709 2.709 0 0 1-.1-2.745c.32-.22.55.45 1.19 1.002.87.801 2.22 1.522 2.54 2.213Z"></path>
    <path stroke="#2C2218" stroke-linecap="round" stroke-linejoin="round" stroke-width=".31" d="M160.87 16.915c.12 1.202.39 2.003 2.9 3.796M163 21.743a60.553 60.553 0 0 1 3.6 5.288 9.853 9.853 0 0 0 7.25 4.908c2.46.18 3.54-3.005 3-7.011a37.83 37.83 0 0 0-.29-1.883"></path>
    <path fill="#3F281C" d="M173.94 31.939c-.08.5-.21 1.222-.33 1.723a13.32 13.32 0 0 0-6.6.37c1.107-.562 2.3-.931 3.53-1.091.373-.016.736-.13 1.05-.33a11.695 11.695 0 0 0-5.86 1c.93-.84 3.63-1.682 6-1.632a12.004 12.004 0 0 1-2.28-.841 9.392 9.392 0 0 1-3.36-3.346c0-1.001.33-1.061.68-.52a11.072 11.072 0 0 0 3.3 3.285 8.866 8.866 0 0 0 3.87 1.382Z" opacity=".23"></path>
    <path fill="#3F281C" d="M166.29 32.94a5.574 5.574 0 0 1 3.23-1.101c-1.16-.511-2.21.13-3.23 1.101ZM176.57 23.035h-1.65c.22 0 .21-.18.15-.571-.06-.39-.27-.571-.53-.551a14.751 14.751 0 0 0-1.61-4.146l.07-.12a6.15 6.15 0 0 0 1.14-2.104 27.896 27.896 0 0 1 2.21 6.26c.21 0 .35 0 .52.48.17.481.12.672-.29.682" opacity=".23"></path>
    <path fill="#3F281C" d="M173.84 31.939a9.292 9.292 0 0 1-7.17-4.788c-1.69-2.824-2.89-4.066-3.69-5.388l.07-.15c.063-.115.134-.225.21-.331a19.823 19.823 0 0 1 1.74 1.753c1.24 1.492 2.32 3.746 4.17 5.358a6.235 6.235 0 0 0 5.05 1.543 3.485 3.485 0 0 0 1.83-3.005 12.993 12.993 0 0 0-.41-3.936h.91c.107.614.204 1.242.29 1.883.55 4.006-.55 7.161-3 7.01" opacity=".23"></path>
    <path fill="#3F281C" d="M163.29 21.262a2.99 2.99 0 0 0-.28.47 9.591 9.591 0 0 1-2.09-2.002 2.71 2.71 0 0 1-.1-2.745c.15-.11.27 0 .44.17a3.077 3.077 0 0 0 .81 2.875c.44.47.82.861 1.21 1.242" opacity=".23"></path>
    <path fill="#E8DFAF" d="M156.46 26.6a.56.56 0 0 0 .16.28.664.664 0 0 0 .475.199.668.668 0 0 0 .475-.198.632.632 0 0 0 .19-.28.998.998 0 0 0 .9-.221 1.005 1.005 0 0 0 .08-1.392.996.996 0 0 0-.72-.33.6.6 0 0 0-.17-.411.664.664 0 0 0-.475-.198.668.668 0 0 0-.475.198.646.646 0 0 0-.19.67.68.68 0 0 0-.64.781l-.07.061a.494.494 0 0 0 0 .711.508.508 0 0 0 .5.14"></path>
    <path fill="#fff" d="M156.74 25.018c.22 0 .18-.08.18-.22a.749.749 0 0 1 .08-.351c.13-.2.56-.12.65.09.09.21 0 .22 0 .32s.27 0 .38 0a.426.426 0 0 1 .32.168.436.436 0 0 1 .08.353c-.026.11-.06.216-.1.32 0 .141.06.151.1.311a.355.355 0 0 1-.13.391c-.18.08-.33-.09-.47-.17-.14-.08-.39-.14-.47 0-.08.14 0 .28-.15.39-.15.11-.3-.07-.42-.14a1.49 1.49 0 0 0-.4-.18c-.22 0-.31-.11-.3-.33.01-.221.13-.251.38-.301.25-.05.34-.12.38-.32.04-.201-.13-.201-.16-.351l.05.02Z" opacity=".6"></path>
    <path stroke="#DEB98E" stroke-linecap="round" stroke-linejoin="round" stroke-width=".31" d="M158 24.837a.653.653 0 0 0-.13-.546.645.645 0 0 0-.51-.235.61.61 0 0 0-.49 1.052M158.3 24.738c.42.4.91.7.58 1.372-.27.52-1.14.851-1.48.24M157.43 26.931c-.51.22-1.24-.22-.9-.781M156.21 26.59a.837.837 0 0 1-.36-.34c-.08-.24.23-.641.48-.551M156.08 25.649c-.17-.25.34-.841.59-.661"></path>
    <path stroke="#DEB98E" stroke-linecap="round" stroke-linejoin="round" stroke-width=".31" d="M157.3 25.929c.15-.14.42-.59.67-.33"></path>
    <path stroke="#DEB98E" stroke-linecap="round" stroke-linejoin="round" stroke-width=".31" d="M157.68 25.528c-.24.11-.49-.18-.45-.4"></path>
    <path fill="#E8DFAF" d="M157.74 24.868a.635.635 0 0 0 0 .26.563.563 0 0 0 .91.33.847.847 0 0 0 .73.241.818.818 0 0 0 .69-.931.843.843 0 0 0-.35-.541.54.54 0 0 0 .07-.37.572.572 0 0 0-.866-.351.567.567 0 0 0-.224.28.59.59 0 0 0-.38-.07.532.532 0 0 0-.42.34h-.08a.41.41 0 0 0-.246.682.45.45 0 0 0 .196.13"></path>
    <path fill="#fff" d="M158.66 23.926c.16.09.17 0 .23-.08a.614.614 0 0 1 .22-.21c.19-.08.44.15.41.34-.03.19-.13.13-.12.24.01.11.17.14.25.191a.353.353 0 0 1 .122.265.35.35 0 0 1-.122.266c-.06.07-.16.12-.22.18s0 .13-.07.26a.302.302 0 0 1-.28.21c-.17 0-.18-.21-.25-.32-.07-.11-.21-.26-.34-.2-.13.06-.1.22-.28.21-.18-.01-.18-.18-.23-.28a.931.931 0 0 0-.21-.3c-.13-.13-.17-.21-.06-.371.11-.16.21-.12.4 0 .19.12.29.07.41-.06s0-.2.06-.32l.08-.02Z" opacity=".6"></path>
    <path stroke="#DEB98E" stroke-linecap="round" stroke-linejoin="round" stroke-width=".31" d="M159.62 24.317a.515.515 0 0 0 .132-.201c.028-.077.037-.16.028-.24a.526.526 0 0 0-.26-.39.508.508 0 0 0-.793.217.518.518 0 0 0-.017.314M159.88 24.367c.12.46.32.881-.22 1.202-.54.32-1.19.11-1.14-.48M158.24 25.549c-.46-.06-.76-.701-.27-.932M157.56 24.758a.65.65 0 0 1-.1-.4c0-.201.45-.341.59-.181M157.91 24.036c0-.25.62-.44.72-.21"></path>
    <path stroke="#DEB98E" stroke-linecap="round" stroke-linejoin="round" stroke-width=".31" d="M158.63 24.758c.16 0 .57-.22.62.06M159.08 24.646c-.22 0-.25-.33-.13-.47"></path>
    <path fill="#E8DFAF" d="M159.36 22.474a.548.548 0 0 0-.84.43.428.428 0 0 0 .06.271.771.771 0 0 0-.4.641.832.832 0 0 0 .78.872.807.807 0 0 0 .62-.21c.098.084.22.137.35.15a.546.546 0 0 0 .533-.303.538.538 0 0 0-.223-.719.532.532 0 0 0-.08-.831.139.139 0 0 0 0-.07.431.431 0 0 0-.4-.45.47.47 0 0 0-.4.21"></path>
    <path fill="#fff" d="M160.14 23.576c-.13.13-.06.15 0 .24.077.07.133.16.16.26 0 .2-.25.381-.44.311s-.11-.15-.21-.17c-.1-.02-.18.13-.25.19a.368.368 0 0 1-.44.03.363.363 0 0 1-.11-.11 2.376 2.376 0 0 1-.13-.25c-.07-.11-.12-.06-.24-.13s-.19-.191-.15-.311c.04-.12.25-.13.38-.17.13-.04.32-.13.28-.28-.04-.151-.21-.141-.15-.311s.22-.13.34-.15c.118-.024.233-.065.34-.12.16-.091.25-.121.38 0 .13.12.06.21 0 .39a.306.306 0 0 0-.073.2c0 .073.025.144.073.2.1.12.19 0 .3.13l-.06.05Z" opacity=".6"></path>
    <path stroke="#DEB98E" stroke-linecap="round" stroke-linejoin="round" stroke-width=".31" d="M159.49 24.417a.56.56 0 0 0 .85.11.51.51 0 0 0-.34-.901M159.37 24.637c-.48 0-1 .09-1.15-.5-.15-.591.17-1.142.74-1.002M158.57 22.814c.17-.42.87-.57 1 0M159.53 22.344a.74.74 0 0 1 .42 0c.19.09.24.51 0 .6M160.17 22.845c.24.06.3.68 0 .73"></path>
    <path stroke="#DEB98E" stroke-linecap="round" stroke-linejoin="round" stroke-width=".31" d="M159.29 23.366c0 .17.1.59-.19.58"></path>
    <path stroke="#DEB98E" stroke-linecap="round" stroke-linejoin="round" stroke-width=".31" d="M159.27 23.816c.08-.2.39-.17.51 0"></path>
    <path fill="#E8DFAF" d="M163.06 22.204a.51.51 0 0 0-.27-.08.561.561 0 0 0-.62.53.451.451 0 0 0 .06.28.868.868 0 0 0-.42.672.86.86 0 0 0 .81.911.939.939 0 0 0 .64-.21.58.58 0 0 0 .785.039.569.569 0 0 0-.095-.93.568.568 0 0 0-.08-.861.18.18 0 0 0 0-.081.437.437 0 0 0-.41-.46.409.409 0 0 0-.41.2"></path>
    <path fill="#fff" d="M163.87 23.345c-.13.13-.06.15 0 .25a.725.725 0 0 1 .17.261c0 .21-.27.4-.46.32-.19-.08-.11-.17-.22-.18-.11-.01-.18.14-.25.2a.378.378 0 0 1-.57-.08 2.76 2.76 0 0 1-.13-.26c-.07-.11-.13-.06-.25-.13s-.21-.2-.16-.32c.05-.12.27-.13.4-.18.13-.051.33-.141.29-.301-.04-.16-.21-.15-.16-.32.05-.171.23-.131.35-.171.127-.024.248-.068.36-.13.16-.09.27-.12.39 0s.07.22 0 .41c-.07.19-.15.27 0 .41.15.141.21 0 .32.131l-.08.09Z" opacity=".6"></path>
    <path stroke="#DEB98E" stroke-linecap="round" stroke-linejoin="round" stroke-width=".31" d="M163.19 24.227a.588.588 0 0 0 .419.265.578.578 0 0 0 .471-.155.533.533 0 0 0 .149-.588.531.531 0 0 0-.499-.344M163.07 24.447c-.51 0-1 .09-1.2-.51-.2-.602.18-1.193.78-1.002M162.23 22.553c.18-.45.91-.59 1 0M163.24 22.073a.779.779 0 0 1 .44 0c.19.09.25.531 0 .631M163.89 22.594c.25.06.32.721 0 .761"></path>
    <path stroke="#DEB98E" stroke-linecap="round" stroke-linejoin="round" stroke-width=".31" d="M163 23.125c0 .17.1.61-.21.6"></path>
    <path stroke="#DEB98E" stroke-linecap="round" stroke-linejoin="round" stroke-width=".31" d="M163 23.595c.08-.21.41-.17.53 0"></path>
    <path fill="#E8DFAF" d="M165.81 24.547a.613.613 0 0 0 .1-.26.58.58 0 0 0-.52-.631.658.658 0 0 0-.3 0 .841.841 0 0 0-.68-.43.867.867 0 0 0-.895.436.828.828 0 0 0-.066.677c.036.11.094.211.171.298a.548.548 0 0 0-.17.35.583.583 0 0 0 .52.632.583.583 0 0 1 .429-.272.585.585 0 0 1 .481.162.568.568 0 0 0 .52-.22h.08a.439.439 0 0 0 .49-.597.391.391 0 0 0-.16-.175"></path>
    <path fill="#fff" d="M164.62 25.298c-.13-.13-.16-.07-.25 0a.592.592 0 0 1-.28.15c-.22 0-.4-.27-.32-.46.08-.19.17-.11.18-.21.01-.1-.13-.19-.19-.26a.373.373 0 0 1 .1-.552c.088-.048.178-.091.27-.13.11-.07.07-.13.15-.25a.31.31 0 0 1 .34-.14c.16.06.13.26.17.39.04.13.13.32.29.28.16-.04.16-.2.34-.14.18.06.13.22.16.34.02.124.061.242.12.351.1.17.11.26 0 .381-.11.12-.23.06-.41-.06a.358.358 0 0 0-.42 0c-.13.09-.06.2-.15.31h-.1Z" opacity=".6"></path>
    <path stroke="#DEB98E" stroke-linecap="round" stroke-linejoin="round" stroke-width=".31" d="M163.75 24.627a.554.554 0 0 0-.257.647.56.56 0 0 0 .127.215.55.55 0 0 0 1-.32M163.52 24.507c0-.5-.07-1.001.56-1.162.63-.16 1.22.21 1 .792M165.48 23.746c.45.19.58.901 0 1.001M166 24.738a.732.732 0 0 1 0 .42c-.11.19-.56.24-.64 0M165.41 25.359c-.07.25-.75.28-.78 0"></path>
    <path stroke="#DEB98E" stroke-linecap="round" stroke-linejoin="round" stroke-width=".31" d="M164.88 24.447c-.17 0-.64.08-.61-.21"></path>
    <path stroke="#DEB98E" stroke-linecap="round" stroke-linejoin="round" stroke-width=".31" d="M164.39 24.427c.21.09.16.4 0 .52"></path>
    <path fill="#E8DFAF" d="M164.55 26.56a.51.51 0 0 0-.27-.08.58.58 0 0 0-.62.521.451.451 0 0 0 .06.28.867.867 0 0 0-.42.662.854.854 0 0 0 .476.827c.101.049.211.078.324.084a.94.94 0 0 0 .64-.21.572.572 0 0 0 .866-.042.568.568 0 0 0 .107-.465.559.559 0 0 0-.283-.385.6.6 0 0 0 .16-.35.588.588 0 0 0-.24-.511.18.18 0 0 0 0-.08.438.438 0 0 0-.41-.46.422.422 0 0 0-.4.21"></path>
    <path fill="#fff" d="M165.35 27.692c-.13.13-.06.15 0 .25a.754.754 0 0 1 .17.26c0 .211-.27.401-.46.321-.19-.08-.11-.17-.22-.18-.11-.01-.18.14-.25.2a.382.382 0 0 1-.57-.08 2.548 2.548 0 0 1-.13-.26c-.07-.11-.13-.06-.25-.13s-.21-.2-.16-.32c.05-.121.27-.131.39-.181.12-.05.33-.14.28-.28-.05-.14-.15-.16-.15-.361 0-.2.23-.13.35-.17.126-.024.248-.068.36-.13.16-.09.27-.12.39 0s.07.22 0 .4c-.07.18-.15.27 0 .41.15.14.21 0 .32.13l-.07.121Z" opacity=".6"></path>
    <path stroke="#DEB98E" stroke-linecap="round" stroke-linejoin="round" stroke-width=".31" d="M164.67 28.564a.577.577 0 0 0 .672.24.582.582 0 0 0 .218-.13.525.525 0 0 0 .148-.588.53.53 0 0 0-.498-.344M164.56 28.784c-.51 0-1 .09-1.2-.51-.2-.602.18-1.193.78-1.002M163.72 26.93c.18-.44.9-.59 1 0M164.72 26.42a.788.788 0 0 1 .44 0c.19.09.25.53 0 .631M165.37 26.93c.25.061.32.722 0 .762"></path>
    <path stroke="#DEB98E" stroke-linecap="round" stroke-linejoin="round" stroke-width=".31" d="M164.45 27.472c0 .17.1.61-.21.59"></path>
    <path stroke="#DEB98E" stroke-linecap="round" stroke-linejoin="round" stroke-width=".31" d="M164.45 27.932c.08-.2.4-.17.52 0"></path>
    <path fill="#E8DFAF" d="M164.05 26.77a.684.684 0 0 0 0 .271.59.59 0 0 0 .95.35.886.886 0 0 0 .76.251.841.841 0 0 0 .72-1.002.868.868 0 0 0-.36-.57.515.515 0 0 0 .07-.381.58.58 0 0 0-.67-.47.568.568 0 0 0-.46.4.596.596 0 0 0-.84.28h-.08a.427.427 0 0 0-.356.33.427.427 0 0 0-.004.171.43.43 0 0 0 .3.33"></path>
    <path fill="#fff" d="M165 25.74c.16.09.17 0 .24-.08a.83.83 0 0 1 .23-.221c.19-.08.46.17.42.35-.04.18-.15.14-.12.25.03.11.18.14.25.201a.361.361 0 0 1 0 .55c-.06.081-.16.121-.23.191s0 .14-.07.27-.16.241-.28.22c-.12-.02-.19-.21-.27-.33-.08-.12-.22-.27-.35-.2-.13.07-.1.24-.29.21-.19-.03-.18-.19-.24-.29a1.13 1.13 0 0 0-.21-.31c-.13-.13-.18-.22-.06-.381.12-.16.21-.12.41 0a.341.341 0 0 0 .42-.07c.11-.12 0-.2.06-.33l.09-.03Z" opacity=".6"></path>
    <path stroke="#DEB98E" stroke-linecap="round" stroke-linejoin="round" stroke-width=".31" d="M166 26.2a.566.566 0 0 0 .147-.527.557.557 0 0 0-.652-.42.561.561 0 0 0-.445.636M166.27 26.26c.12.48.33.921-.23 1.252-.56.33-1.24.11-1.19-.501M164.58 27.472c-.48-.07-.8-.721-.28-1.002M163.87 26.65a.698.698 0 0 1-.1-.41c0-.21.47-.37.62-.19M164.23 25.929c0-.26.64-.46.74-.21"></path>
    <path stroke="#DEB98E" stroke-linecap="round" stroke-linejoin="round" stroke-width=".31" d="M165 26.65c.17 0 .59-.24.64.06"></path>
    <path stroke="#DEB98E" stroke-linecap="round" stroke-linejoin="round" stroke-width=".31" d="M165.45 26.54c-.23 0-.27-.34-.15-.5"></path>
    <path fill="#E8DFAF" d="M162.45 25.389a.684.684 0 0 0 0 .27.592.592 0 0 0 .95.35.897.897 0 0 0 1.085.14.841.841 0 0 0 .395-.89.866.866 0 0 0-.36-.572.505.505 0 0 0 .07-.38.59.59 0 0 0-.958-.337.575.575 0 0 0-.172.267.607.607 0 0 0-.39-.07.602.602 0 0 0-.45.35h-.08a.432.432 0 0 0-.36.501.43.43 0 0 0 .3.33"></path>
    <path fill="#fff" d="M163.4 24.357c.16.09.17 0 .24-.08a.804.804 0 0 1 .23-.22c.19-.08.46.17.42.35-.04.18-.15.14-.12.25.03.11.18.14.25.2a.359.359 0 0 1 .094.428.359.359 0 0 1-.094.123c-.06.08-.16.12-.23.19s0 .141-.07.271c-.07.13-.16.24-.28.22-.12-.02-.19-.21-.27-.33-.08-.12-.22-.27-.35-.2-.13.07-.1.24-.29.21-.19-.03-.18-.19-.24-.3a1.172 1.172 0 0 0-.21-.31c-.13-.131-.18-.221-.06-.381s.21-.12.41 0a.339.339 0 0 0 .42-.07c.11-.12 0-.2.06-.331l.09-.02Z" opacity=".6"></path>
    <path stroke="#DEB98E" stroke-linecap="round" stroke-linejoin="round" stroke-width=".31" d="M164.41 24.818a.567.567 0 0 0 .148-.527.56.56 0 0 0-1.098.217M164.67 24.878c.12.48.33.921-.23 1.252-.56.33-1.24.11-1.19-.5M163 26.09c-.49-.07-.8-.721-.28-1.002M162.27 25.268a.697.697 0 0 1-.1-.41c0-.21.47-.37.62-.19M162.63 24.517c0-.26.64-.46.74-.21"></path>
    <path stroke="#DEB98E" stroke-linecap="round" stroke-linejoin="round" stroke-width=".31" d="M163.38 25.268c.17 0 .59-.24.64.06"></path>
    <path stroke="#DEB98E" stroke-linecap="round" stroke-linejoin="round" stroke-width=".31" d="M163.84 25.167c-.23 0-.27-.34-.15-.5"></path>
    <path fill="#E8DFAF" d="M164 25.078a.539.539 0 0 0-.3-.09.65.65 0 0 0-.64.921.942.942 0 0 0-.47.761 1 1 0 0 0 .92 1.002.93.93 0 0 0 .73-.25.666.666 0 0 0 .685.137.672.672 0 0 0 .435-.548.626.626 0 0 0-.077-.35.626.626 0 0 0-.253-.251.692.692 0 0 0 .18-.4.66.66 0 0 0-.28-.582.228.228 0 0 0 0-.09.492.492 0 0 0-.729-.459.532.532 0 0 0-.201.189"></path>
    <path fill="#fff" d="M164.93 26.37c-.16.14-.07.18 0 .28.08.088.145.19.19.3 0 .241-.3.452-.52.372-.22-.08-.12-.19-.25-.2-.13-.01-.21.15-.29.22a.445.445 0 0 1-.51.034.438.438 0 0 1-.13-.125c-.07-.09-.1-.2-.16-.29-.06-.09-.15-.07-.29-.15a.351.351 0 0 1-.18-.37c.07-.181.3-.151.45-.201.15-.05.36-.15.33-.33-.03-.181-.23-.171-.17-.371.06-.2.25-.15.4-.19.144-.02.283-.068.41-.14.18-.121.3-.131.45 0 .15.13.07.26-.06.46a.369.369 0 0 0 0 .47c.11.14.23.06.35.15l-.02.081Z" opacity=".6"></path>
    <path stroke="#DEB98E" stroke-linecap="round" stroke-linejoin="round" stroke-width=".31" d="M164.15 27.362a.669.669 0 0 0 .473.292.654.654 0 0 0 .527-.172.601.601 0 0 0-.4-1.062M164 27.622c-.58 0-1.13.12-1.36-.58-.17-.542.21-1.363.89-1.143M163.07 25.478c.21-.5 1-.67 1.18 0M164.2 24.928a.888.888 0 0 1 .5 0c.22.12.29.6 0 .711M164.95 25.519c.29.07.35.811 0 .861"></path>
    <path stroke="#DEB98E" stroke-linecap="round" stroke-linejoin="round" stroke-width=".31" d="M163.91 26.12c0 .19.11.701-.23.67"></path>
    <path stroke="#DEB98E" stroke-linecap="round" stroke-linejoin="round" stroke-width=".31" d="M163.89 26.65c.1-.24.46-.19.59 0"></path>
    <path fill="#E8DFAF" d="M161 26.66a.53.53 0 0 0 0 .311.652.652 0 0 0 .75.53.697.697 0 0 0 .32-.14 1.001 1.001 0 0 0 .86.271.999.999 0 0 0 .82-1.112 1 1 0 0 0-.41-.64.652.652 0 0 0-.67-.972.633.633 0 0 0-.52.45.698.698 0 0 0-.44-.08.657.657 0 0 0-.51.401h-.1a.49.49 0 0 0-.41.57.453.453 0 0 0 .33.412"></path>
    <path fill="#fff" d="M162.13 25.489c.18.11.19 0 .27-.09a.622.622 0 0 1 .25-.25c.23-.091.52.19.48.41-.04.22-.16.15-.13.28.03.13.21.17.29.22a.415.415 0 0 1 .113.14.41.41 0 0 1 0 .352.414.414 0 0 1-.113.14 2.029 2.029 0 0 1-.25.21c-.11.11 0 .15-.08.31a.34.34 0 0 1-.33.25c-.19 0-.22-.25-.3-.38-.08-.13-.24-.31-.4-.24-.16.07-.11.26-.33.25-.22-.01-.21-.21-.28-.33a.93.93 0 0 0-.24-.35c-.16-.151-.21-.261-.07-.422.14-.16.24-.13.47 0 .23.13.35.08.49-.07.14-.15 0-.24.07-.38l.09-.05Z" opacity=".6"></path>
    <path stroke="#DEB98E" stroke-linecap="round" stroke-linejoin="round" stroke-width=".31" d="M163.27 26.01a.621.621 0 0 0-.11-1.002.622.622 0 0 0-.977.246.62.62 0 0 0-.023.385M163.58 26.08c.15.54.38 1.051-.27 1.432-.65.38-1.39.12-1.35-.571M161.65 27.472c-.55-.07-.91-.811-.32-1.112M160.84 26.52a.785.785 0 0 1-.11-.47c.06-.24.53-.411.7-.21M161.25 25.678c0-.3.73-.52.85-.25"></path>
    <path stroke="#DEB98E" stroke-linecap="round" stroke-linejoin="round" stroke-width=".31" d="M162.1 26.53c.19 0 .68-.27.73.06"></path>
    <path stroke="#DEB98E" stroke-linecap="round" stroke-linejoin="round" stroke-width=".31" d="M162.63 26.41c-.25 0-.3-.39-.16-.57"></path>
    <path fill="#E8DFAF" d="M161.24 25.93a.614.614 0 0 0 .085-.545.664.664 0 0 0-.32-.385.672.672 0 0 0-.585-.012.995.995 0 0 0-.76-.48.998.998 0 0 0-1.09.86c-.02.262.063.52.23.722a.612.612 0 0 0-.19.4.663.663 0 0 0 .453.683.656.656 0 0 0 .767-.282.657.657 0 0 0 .99-.07h.1a.49.49 0 0 0 .55-.44.449.449 0 0 0-.22-.472"></path>
    <path fill="#fff" d="M159.88 26.821c-.15-.15-.18-.07-.29 0a.749.749 0 0 1-.32.18c-.24 0-.45-.31-.36-.52.09-.21.19-.12.21-.24.02-.121-.16-.211-.22-.301a.414.414 0 0 1-.019-.512.411.411 0 0 1 .139-.12c.1-.07.21-.08.3-.14.09-.06.07-.14.16-.27a.37.37 0 0 1 .38-.17c.18.07.15.3.19.44.04.14.15.371.33.32.18-.05.18-.22.38-.15s.15.261.18.391c.021.14.065.275.13.4.11.191.13.301 0 .442-.13.14-.27.07-.47-.07a.39.39 0 0 0-.48 0c-.15.11-.06.22-.17.34l-.07-.02Z" opacity=".6"></path>
    <path stroke="#DEB98E" stroke-linecap="round" stroke-linejoin="round" stroke-width=".31" d="M158.9 26.05a.608.608 0 0 0-.15 1.002.624.624 0 0 0 .67.2.624.624 0 0 0 .43-.551M158.63 25.93c0-.572-.08-1.112.63-1.313.56-.15 1.38.24 1.15.892M160.86 25.048c.51.21.65 1.002 0 1.142M161.4 26.16a.82.82 0 0 1 0 .48c-.12.211-.62.261-.73 0M160.78 26.93c-.08.28-.85.32-.89 0"></path>
    <path stroke="#DEB98E" stroke-linecap="round" stroke-linejoin="round" stroke-width=".31" d="M160.17 25.849c-.19 0-.73.09-.69-.25"></path>
    <path stroke="#DEB98E" stroke-linecap="round" stroke-linejoin="round" stroke-width=".31" d="M159.64 25.82c.24.11.18.45 0 .58"></path>
    <path fill="#E8DFAF" d="M157.89 27.752a.623.623 0 0 0 .084-.544.645.645 0 0 0-.564-.457.668.668 0 0 0-.34.06 1.005 1.005 0 0 0-.76-.48 1 1 0 0 0-1.09.86 1 1 0 0 0 .23.722.612.612 0 0 0-.19.4.642.642 0 0 0 .147.479.651.651 0 0 0 .443.232.67.67 0 0 0 .63-.31.63.63 0 0 0 .4.19.66.66 0 0 0 .59-.26h.1a.493.493 0 0 0 .493-.254.492.492 0 0 0 .057-.187.477.477 0 0 0-.22-.47"></path>
    <path fill="#fff" d="M156.54 28.613c-.15-.15-.18-.07-.29 0a.749.749 0 0 1-.32.18c-.24 0-.45-.31-.36-.52.09-.21.19-.12.21-.24.02-.12-.16-.21-.22-.29a.414.414 0 0 1-.019-.513.411.411 0 0 1 .139-.119c.1-.07.21-.08.3-.14.09-.06.07-.14.16-.27a.37.37 0 0 1 .38-.17c.18.07.15.3.19.44.04.14.15.37.33.32.18-.05.18-.22.38-.15s.15.26.18.39c.021.14.065.276.13.401.11.19.13.3 0 .441-.13.14-.27.07-.47-.07a.39.39 0 0 0-.49 0c-.15.11-.06.22-.17.34l-.06-.03Z" opacity=".6"></path>
    <path stroke="#DEB98E" stroke-linecap="round" stroke-linejoin="round" stroke-width=".31" d="M155.56 27.843a.607.607 0 0 0-.34.46.613.613 0 0 0 .19.54.624.624 0 0 0 .67.201.624.624 0 0 0 .43-.55M155.3 27.702c0-.57-.08-1.112.63-1.312.56-.15 1.38.24 1.15.891M157.52 26.84c.51.211.65 1.002 0 1.143M158 27.932a.837.837 0 0 1 0 .481c-.12.21-.63.26-.73 0M157.43 28.684c-.08.28-.85.32-.89 0"></path>
    <path stroke="#DEB98E" stroke-linecap="round" stroke-linejoin="round" stroke-width=".31" d="M156.84 27.642c-.19 0-.73.09-.69-.25"></path>
    <path stroke="#DEB98E" stroke-linecap="round" stroke-linejoin="round" stroke-width=".31" d="M156.29 27.622c.24.11.18.45 0 .58"></path>
    <path fill="#E8DFAF" d="M158.72 26.46a.542.542 0 0 0-.3-.09.65.65 0 0 0-.64.922.945.945 0 0 0-.47.76 1 1 0 0 0 .92 1.002.928.928 0 0 0 .73-.25.665.665 0 0 0 .685.138.67.67 0 0 0 .435-.548.634.634 0 0 0-.33-.602.698.698 0 0 0 .18-.4.671.671 0 0 0-.28-.581.228.228 0 0 0 0-.09.492.492 0 0 0-.729-.46.524.524 0 0 0-.201.19"></path>
    <path fill="#fff" d="M159.63 27.752c-.16.14-.07.18 0 .28.079.086.144.184.19.291 0 .24-.3.451-.52.37-.22-.08-.12-.19-.25-.2-.13-.01-.21.15-.29.22a.442.442 0 0 1-.64-.09c-.07-.09-.1-.2-.16-.3-.06-.1-.15-.07-.29-.15a.35.35 0 0 1-.18-.37c.07-.18.3-.15.45-.2.15-.051.36-.151.33-.331-.03-.18-.23-.17-.17-.371.06-.2.25-.15.4-.19.144-.02.283-.068.41-.14.18-.12.3-.13.45 0 .15.13.07.26-.06.46a.368.368 0 0 0-.084.236c0 .085.029.169.084.235.11.14.23.06.35.15l-.02.1Z" opacity=".6"></path>
    <path stroke="#DEB98E" stroke-linecap="round" stroke-linejoin="round" stroke-width=".31" d="M158.86 28.744a.653.653 0 0 0 1 .12.601.601 0 0 0-.4-1.062M158.73 29.014c-.58 0-1.13.12-1.36-.58-.17-.542.21-1.363.89-1.142M157.77 26.86c.21-.5 1-.67 1.18 0M158.91 26.31a.888.888 0 0 1 .5 0c.22.12.29.601 0 .711M159.66 26.93c.29.071.35.812 0 .862"></path>
    <path stroke="#DEB98E" stroke-linecap="round" stroke-linejoin="round" stroke-width=".31" d="M158.61 27.512c0 .19.11.701-.23.671"></path>
    <path stroke="#DEB98E" stroke-linecap="round" stroke-linejoin="round" stroke-width=".31" d="M158.61 28.042c.1-.24.46-.19.59 0"></path>
    <path fill="#E8DFAF" d="M157.76 24.928a.541.541 0 0 0-.3-.09.65.65 0 0 0-.64.921.94.94 0 0 0-.47.751 1 1 0 0 0 .92 1.002.928.928 0 0 0 .73-.25c.111.106.256.17.41.18a.648.648 0 0 0 .7-.591.634.634 0 0 0-.33-.601.7.7 0 0 0 .22-.32.67.67 0 0 0-.28-.581.228.228 0 0 0 0-.09.492.492 0 0 0-.46-.521.56.56 0 0 0-.47.25"></path>
    <path fill="#fff" d="M158.68 26.24c-.16.14-.07.18 0 .28.08.088.145.19.19.3 0 .241-.3.451-.52.371-.22-.08-.12-.19-.25-.2-.13-.01-.21.15-.29.22a.444.444 0 0 1-.51.034.438.438 0 0 1-.13-.124c-.07-.09-.1-.2-.16-.3-.06-.1-.15-.07-.29-.15a.351.351 0 0 1-.18-.371c.07-.18.3-.15.45-.2.15-.05.36-.15.33-.33-.03-.181-.23-.171-.17-.371.06-.2.25-.15.4-.19.144-.02.283-.068.41-.14.18-.121.3-.131.45 0 .15.13.07.26-.06.46a.369.369 0 0 0 0 .47c.11.14.23.06.35.15l-.02.09Z" opacity=".6"></path>
    <path stroke="#DEB98E" stroke-linecap="round" stroke-linejoin="round" stroke-width=".31" d="M157.91 27.232a.67.67 0 0 0 .472.292.659.659 0 0 0 .528-.172.606.606 0 0 0 .177-.673.604.604 0 0 0-.577-.389M157.77 27.502c-.58 0-1.13.12-1.36-.581-.17-.54.21-1.362.89-1.142M156.82 25.348c.21-.5 1-.67 1.18 0M158 24.798a.89.89 0 0 1 .5 0c.22.12.29.6 0 .71M158.72 25.389c.29.07.35.811 0 .861"></path>
    <path stroke="#DEB98E" stroke-linecap="round" stroke-linejoin="round" stroke-width=".31" d="M157.66 26c0 .19.11.7-.23.67"></path>
    <path stroke="#DEB98E" stroke-linecap="round" stroke-linejoin="round" stroke-width=".31" d="M157.66 26.53c.1-.24.46-.19.59 0"></path>
    <path fill="#E8DFAF" d="M162.1 28.093a.626.626 0 0 0 .11-.3.661.661 0 0 0-.147-.48.65.65 0 0 0-.783-.172 1.006 1.006 0 0 0-.76-.48 1 1 0 0 0-1.09.86 1 1 0 0 0 .23.722.612.612 0 0 0-.19.4.643.643 0 0 0 .147.48.652.652 0 0 0 .443.232.67.67 0 0 0 .63-.31.63.63 0 0 0 .4.19.66.66 0 0 0 .59-.26h.1a.508.508 0 0 0 .56-.442.48.48 0 0 0-.23-.47"></path>
    <path fill="#fff" d="M160.74 28.934c-.15-.15-.18-.07-.29 0a.748.748 0 0 1-.32.18c-.24 0-.45-.31-.36-.52.09-.21.19-.12.21-.24.02-.121-.16-.211-.22-.291a.414.414 0 0 1-.018-.512.406.406 0 0 1 .138-.12c.1-.07.21-.08.3-.14.09-.06.07-.14.16-.27a.369.369 0 0 1 .38-.17c.18.07.15.3.19.44.04.14.15.371.33.321.18-.05.18-.22.38-.15s.15.26.18.39c.022.14.066.275.13.401.11.19.13.3 0 .44s-.27.07-.47-.07a.388.388 0 0 0-.48 0c-.15.11-.06.22-.17.341l-.07-.03Z" opacity=".6"></path>
    <path stroke="#DEB98E" stroke-linecap="round" stroke-linejoin="round" stroke-width=".31" d="M159.77 28.183a.605.605 0 0 0-.34.46.612.612 0 0 0 .19.54.624.624 0 0 0 .67.202.624.624 0 0 0 .43-.551M159.5 28.043c0-.571-.08-1.112.63-1.312.56-.15 1.38.24 1.15.891M161.72 27.181c.51.21.65 1.002 0 1.142M162.26 28.303a.82.82 0 0 1 0 .481c-.12.21-.63.26-.73 0M161.64 29.014c-.08.28-.85.32-.89 0"></path>
    <path stroke="#DEB98E" stroke-linecap="round" stroke-linejoin="round" stroke-width=".31" d="M161 27.932c-.19 0-.73.09-.69-.25"></path>
    <path stroke="#DEB98E" stroke-linecap="round" stroke-linejoin="round" stroke-width=".31" d="M160.5 27.932c.24.11.18.45 0 .58"></path>
    <path fill="#E8DFAF" d="M161.71 28.644a.53.53 0 0 0 0 .31.652.652 0 0 0 .75.531.697.697 0 0 0 .32-.14 1.001 1.001 0 0 0 .86.27.998.998 0 0 0 .82-1.111 1 1 0 0 0-.41-.641.652.652 0 0 0-.67-.972.64.64 0 0 0-.52.45.69.69 0 0 0-.44-.08.657.657 0 0 0-.51.401h-.1a.489.489 0 0 0-.41.571.453.453 0 0 0 .33.41"></path>
    <path fill="#fff" d="M162.79 27.492c.18.11.19 0 .27-.09a.623.623 0 0 1 .25-.25c.23-.09.52.19.49.41-.03.22-.16.15-.13.28.03.13.21.17.29.22a.414.414 0 0 1 .113.14.41.41 0 0 1 0 .352.415.415 0 0 1-.113.14 2.037 2.037 0 0 1-.25.21c-.11.11 0 .15-.08.31a.34.34 0 0 1-.33.251c-.19 0-.22-.25-.3-.38-.08-.13-.24-.311-.4-.241-.16.07-.11.26-.33.25-.22-.01-.21-.21-.28-.33a.943.943 0 0 0-.24-.35c-.16-.15-.21-.261-.07-.421.14-.16.24-.13.47 0 .23.13.35.08.49-.07.14-.15 0-.24.07-.381l.08-.05Z" opacity=".6"></path>
    <path stroke="#DEB98E" stroke-linecap="round" stroke-linejoin="round" stroke-width=".31" d="M163.94 27.993a.62.62 0 0 0-.11-1.002.621.621 0 0 0-1 .631M164.24 28.063c.15.54.38 1.051-.27 1.432-.65.38-1.39.12-1.35-.57M162.32 29.465c-.55-.07-.91-.811-.32-1.112M161.5 28.513a.778.778 0 0 1-.11-.47c.06-.24.53-.411.7-.21M161.92 27.661c0-.3.73-.52.85-.25"></path>
    <path stroke="#DEB98E" stroke-linecap="round" stroke-linejoin="round" stroke-width=".31" d="M162.77 28.513c.19 0 .68-.27.73.06"></path>
    <path stroke="#DEB98E" stroke-linecap="round" stroke-linejoin="round" stroke-width=".31" d="M163.3 28.392c-.25 0-.3-.39-.16-.55"></path>
    <path fill="#E8DFAF" d="M160 24.657a.53.53 0 0 0 0 .31.652.652 0 0 0 .75.532.698.698 0 0 0 .32-.14 1.001 1.001 0 0 0 .86.27.998.998 0 0 0 .82-1.112 1 1 0 0 0-.41-.64.652.652 0 0 0-.67-.972.639.639 0 0 0-.52.45.688.688 0 0 0-.44-.08.657.657 0 0 0-.51.4h-.1a.49.49 0 0 0-.41.572.471.471 0 0 0 .33.4"></path>
    <path fill="#fff" d="M161.1 23.485c.18.11.19 0 .27-.09a.635.635 0 0 1 .25-.25c.23-.09.52.19.48.41-.04.221-.16.15-.13.281.03.13.21.17.29.22a.396.396 0 0 1 0 .631 2.026 2.026 0 0 1-.25.21c-.11.11 0 .151-.08.311a.339.339 0 0 1-.33.25c-.19 0-.22-.25-.3-.38-.08-.13-.24-.31-.4-.24-.16.07-.11.26-.33.25-.22-.01-.21-.21-.28-.33a.93.93 0 0 0-.24-.351c-.16-.15-.21-.26-.07-.42.14-.16.24-.13.47 0 .23.13.35.08.49-.07.14-.151 0-.241.07-.381l.09-.05Z" opacity=".6"></path>
    <path stroke="#DEB98E" stroke-linecap="round" stroke-linejoin="round" stroke-width=".31" d="M162.26 23.996a.62.62 0 0 0-.11-1.001.622.622 0 0 0-.977.246.627.627 0 0 0-.023.385M162.55 24.076c.15.541.38 1.052-.27 1.433-.65.38-1.39.12-1.35-.571M160.62 25.469c-.55-.07-.91-.812-.32-1.112M159.81 24.507a.785.785 0 0 1-.11-.47c.06-.241.53-.411.7-.211M160.22 23.665c0-.3.73-.52.85-.25"></path>
    <path stroke="#DEB98E" stroke-linecap="round" stroke-linejoin="round" stroke-width=".31" d="M161.08 24.517c.19 0 .68-.27.73.06"></path>
    <path stroke="#DEB98E" stroke-linecap="round" stroke-linejoin="round" stroke-width=".31" d="M161.61 24.406c-.25 0-.3-.39-.16-.55"></path>
    <path fill="#C73537" d="m156.1 38.38-1-.111-.1-10.517c.46-.47.91-.35 1.37.14l-.27 10.487Z"></path>
    <path fill="#fff" d="m157.14 38.48-1-.111.23-10.436a.84.84 0 0 1 1.37.14l-.6 10.406Z"></path>
    <path fill="#C73537" d="m158.18 38.59-1-.11.59-10.447a.84.84 0 0 1 1.37.14l-.96 10.417Z"></path>
    <path fill="#fff" d="m160.48 28.303-1.25 10.377-1-.11.92-10.417a.843.843 0 0 1 1.099-.153.84.84 0 0 1 .271.293"></path>
    <path fill="#C73537" d="m161.85 28.433-1.58 10.357-1-.11 1.25-10.377a.836.836 0 0 1 1.096-.16.847.847 0 0 1 .274.29"></path>
    <path fill="#fff" d="m163.23 28.574-1.9 10.316-1-.11 1.58-10.357a.858.858 0 0 1 .721-.28.848.848 0 0 1 .649.42"></path>
    <path fill="#C73537" d="m164.6 28.704-2.24 10.246-1-.11 1.9-10.317a.867.867 0 0 1 .726-.28.856.856 0 0 1 .654.42"></path>
    <path fill="#fff" d="m166.77 27.232-2.63 10.546-.59.4L166 27.713c.29-.61.53-.771.73-.48"></path>
    <path fill="#C73537" d="m166 27.722-2.5 10.457-.59.4 2.36-10.366c.29-.661.52-.771.73-.5"></path>
    <path fill="#fff" d="M165.33 28.223 163 38.589l-.59.4 2.23-10.275c.23-.631.47-.711.73-.501"></path>
    <path stroke="#2C2218" stroke-linecap="round" stroke-linejoin="round" stroke-width=".31" d="m156.1 38.39-1-.111-.1-10.517c.46-.47.91-.35 1.37.14l-.27 10.487Z"></path>
    <path stroke="#2C2218" stroke-linecap="round" stroke-linejoin="round" stroke-width=".31" d="m157.14 38.49-1-.111.22-10.446a.84.84 0 0 1 1.37.14l-.59 10.416ZM158.18 38.6l-1-.11.59-10.447a.84.84 0 0 1 1.37.14l-.96 10.416Z"></path>
    <path stroke="#2C2218" stroke-linecap="round" stroke-linejoin="round" stroke-width=".31" d="m160.47 28.313-1.25 10.376-1-.11.92-10.416a.834.834 0 0 1 .702-.256.836.836 0 0 1 .628.406ZM161.84 28.443 160.26 38.8l-1-.11 1.25-10.377a.837.837 0 0 1 1.33.13ZM163.23 28.584l-1.91 10.366-1-.11 1.58-10.357a.846.846 0 0 1 1.053-.16.84.84 0 0 1 .277.26ZM164.6 28.714 162.36 39l-1-.11 1.9-10.316a.86.86 0 0 1 1.34.14ZM166.77 27.242l-2.63 10.546-.59.4L166 27.723c.33-.61.57-.79.77-.48Z"></path>
    <path stroke="#2C2218" stroke-linecap="round" stroke-linejoin="round" stroke-width=".31" d="m166 27.732-2.5 10.457-.59.4 2.36-10.366c.33-.651.56-.761.73-.49Z"></path>
    <path stroke="#2C2218" stroke-linecap="round" stroke-linejoin="round" stroke-width=".31" d="M165.32 28.233 163 38.6l-.59.401 2.19-10.266c.23-.631.47-.711.72-.5Z"></path>
    <path fill="#E8DFAF" d="M162.23 22.864a.558.558 0 0 0 .1-.25.56.56 0 0 0-.5-.601.629.629 0 0 0-.29 0 .837.837 0 0 0-1.343-.148.796.796 0 0 0-.027 1.08.498.498 0 0 0-.17.33.567.567 0 0 0 .38.525.558.558 0 0 0 .62-.184c.094.089.213.148.34.17a.58.58 0 0 0 .51-.21h.15a.43.43 0 0 0 .47-.371.43.43 0 0 0-.041-.226.431.431 0 0 0-.149-.175"></path>
    <path fill="#fff" d="M161.08 23.586c-.12-.13-.16-.06-.24 0a.978.978 0 0 1-.27.15c-.21 0-.39-.26-.3-.44.09-.181.17-.09.18-.201.01-.11-.13-.18-.19-.25a.364.364 0 0 1-.069-.136.346.346 0 0 1 .169-.395c.08-.06.18-.07.25-.12.07-.05.06-.12.13-.24.07-.121.21-.191.32-.141.11.05.12.25.16.38.04.13.12.311.28.271.16-.04.16-.19.33-.13s.12.21.15.33c.02.12.06.236.12.34.1.151.11.251 0 .371s-.23.06-.4-.06a.318.318 0 0 0-.41 0c-.12.08 0 .19-.15.3l-.06-.03Z" opacity=".6"></path>
    <path stroke="#DEB98E" stroke-linecap="round" stroke-linejoin="round" stroke-width=".31" d="M160.26 22.925a.545.545 0 0 0-.217.722.542.542 0 0 0 .716.237.546.546 0 0 0 .301-.439M160 22.815c0-.471-.07-.932.53-1.112.6-.18 1.18.2 1 .761M161.92 22.083c.44.18.56.862 0 1.002M162.37 23.045a.683.683 0 0 1 0 .41c-.11.18-.53.22-.62 0M161.83 23.646c-.07.24-.72.27-.75 0"></path>
    <path stroke="#DEB98E" stroke-linecap="round" stroke-linejoin="round" stroke-width=".31" d="M161.33 22.774c-.17 0-.61.07-.58-.21"></path>
    <path stroke="#DEB98E" stroke-linecap="round" stroke-linejoin="round" stroke-width=".31" d="M160.86 22.744c.21.08.16.39 0 .5"></path>
    <path stroke="#2C2218" stroke-linecap="round" stroke-linejoin="round" stroke-width=".31" d="M156.06 25.549a.292.292 0 0 0 0 .11l-.07.06a.49.49 0 0 0-.1.631.998.998 0 0 0-.67.811 1.08 1.08 0 0 0 0 .34M158.17 23.746a.368.368 0 0 0-.22.2.155.155 0 0 0 0 .08H157.72a1.081 1.081 0 0 0-.28-.07.65.65 0 0 0-.65.48.633.633 0 0 0 0 .372h-.11M160 22.334a.45.45 0 0 0-.22-.08.443.443 0 0 0-.4.2.551.551 0 0 0-.84.43.428.428 0 0 0 .06.271.857.857 0 0 0-.13.09M166.14 27.442a.826.826 0 0 0 .16-1.162 1.02 1.02 0 0 0-.17-.15.537.537 0 0 0-.005-.625.534.534 0 0 0-.165-.146h-.1a.41.41 0 0 0 .14-.431.445.445 0 0 0-.21-.41.613.613 0 0 0 .1-.261.58.58 0 0 0-.52-.631.65.65 0 0 0-.3 0 .844.844 0 0 0-.68-.42.996.996 0 0 0-.41.06v-.07a.413.413 0 0 0 .07-.221.905.905 0 0 0 0-.18.392.392 0 0 0-.16-.271l-.07-.06a.18.18 0 0 0 0-.08.44.44 0 0 0-.82-.25.512.512 0 0 0-.27-.08.588.588 0 0 0-.51.24.556.556 0 0 0-.46-.33.629.629 0 0 0-.29 0"></path>
    <path fill="#fff" d="M161.8 33.521a2.643 2.643 0 0 0-3.111-2.671 2.637 2.637 0 0 0-2.112 2.06 2.642 2.642 0 0 0 2.583 3.186 2.606 2.606 0 0 0 1.85-.741 2.618 2.618 0 0 0 .79-1.834Z"></path>
    <path fill="#060606" d="M158 32.77c0 .14 0 .27-.06.44h.38a.2.2 0 0 0 .19-.18.17.17 0 0 0 .002-.074.173.173 0 0 0-.082-.12.178.178 0 0 0-.07-.026 1.654 1.654 0 0 0-.36 0m-.52-.5 1.24.15a.454.454 0 0 1 .326.173.467.467 0 0 1 .094.357.617.617 0 0 1-.47.611h-.06c.32.22.32.641.47 1.002l-.68-.06c-.08-.22-.16-.46-.24-.681-.08-.22-.11-.22-.28-.2 0 .27-.07.55-.1.84l-.58-.06c.09-.75.2-1.442.29-2.163l-.01.03ZM160.95 33.201h-.56a.267.267 0 0 0-.136-.278.268.268 0 0 0-.104-.032.198.198 0 0 0-.145.017.203.203 0 0 0-.095.113c0 .11 0 .14.12.18l.4.15.21.11a.66.66 0 0 1-.07 1.102.996.996 0 0 1-.4.13 1.34 1.34 0 0 1-.64-.09.652.652 0 0 1-.38-.73h.55v.12a.319.319 0 0 0 .41.26.23.23 0 0 0 .17-.18.181.181 0 0 0-.009-.113.188.188 0 0 0-.071-.088l-.18-.09a3.95 3.95 0 0 1-.39-.18.53.53 0 0 1-.29-.591.65.65 0 0 1 .52-.521c.255-.054.52-.03.76.07a.629.629 0 0 1 .33.651"></path>
    <path stroke="#2C2218" stroke-linecap="round" stroke-linejoin="round" stroke-width=".31" d="M159.15 36.105c1.458 0 2.64-1.152 2.64-2.574 0-1.421-1.182-2.574-2.64-2.574-1.458 0-2.64 1.153-2.64 2.574 0 1.422 1.182 2.574 2.64 2.574Z"></path>
    <path fill="#CAA77A" d="M176.83 38.86c-.106.093-.22.176-.34.25l-.1.06-.21.09-.46.17c-2 .612-5.68.291-8.29.06a4.537 4.537 0 0 0-1.3 0 5.974 5.974 0 0 0-1.42.522c-.7.312-1.436.537-2.19.67-1.2.247-2.428.33-3.65.251h-.07s0-.07.12-.18v-.06c.06-.08.15-.18.24-.28l.11-.12c.52-.592 1.35-1.483 2.13-2.254a15.035 15.035 0 0 1 1.56-1.403 19.532 19.532 0 0 1 3.29-2.003 12.282 12.282 0 0 1 2.83-1.001c1.504-.25 3.037-.28 4.55-.09.761.09 1.51.267 2.23.53h.06l.25.11c1.64.702 2.64 2.745.59 4.598"></path>
    <path fill="#B7B2AF" d="m165.16 39.841-.45.2a12.978 12.978 0 0 1-5.92.902 37.506 37.506 0 0 1 3.93-4.076v.08a7.12 7.12 0 0 0 2.39 2.894"></path>
    <path stroke="#2C2218" stroke-linecap="round" stroke-linejoin="round" stroke-width=".31" d="M162.78 36.947a6.721 6.721 0 0 0 2.38 2.894M158.79 40.953a14.067 14.067 0 0 1 4.46-2.814M158.79 40.953c1.38-.22 4.16-.851 5.43-1.813"></path>
    <path stroke="#9D7B51" stroke-linecap="round" stroke-linejoin="round" stroke-width=".46" d="M172.04 35.214v.771M172.82 35.625v.761"></path>
    <path fill="#3F281C" d="M176.83 38.86c-.106.093-.22.176-.34.25a4.726 4.726 0 0 1-1.73.531 20.78 20.78 0 0 1-4.24.08l-1.27-.08h-.62l-.59-.06-.58-.06a4.559 4.559 0 0 0-1.3 0 6.01 6.01 0 0 0-1.42.52c-.7.313-1.435.538-2.19.672-1.2.246-2.428.33-3.65.25h-.07s0-.07.12-.18v-.06c.08-.11.21-.25.35-.4l.12-.141.11-.12a9.776 9.776 0 0 0 4.77-1.453 5.539 5.539 0 0 1 4.2-.65c1.55.3 4.7.59 6.61-.381a1.618 1.618 0 0 0 .777-2.111 1.622 1.622 0 0 0-.507-.643c-.78-.722-2.85-1.092-5.29-1.092a12.427 12.427 0 0 1 3.61-.08h.43l.47.09h.17l.25.06.53.15h.39l.27.11c1.6.701 2.61 2.745.56 4.598" opacity=".23"></path>
    <path stroke="#2C2218" stroke-linecap="round" stroke-linejoin="round" stroke-width=".31" d="M166.31 34.673a19.956 19.956 0 0 0-3.27 2.003 35.258 35.258 0 0 0-4.24 4.277 12.761 12.761 0 0 0 5.92-.902 4.324 4.324 0 0 1 2.72-.55c3.21.3 7.92.72 9.41-.631 2.06-1.853 1.05-3.896-.59-4.588a11.352 11.352 0 0 0-7-.38"></path>
    <path fill="#CAA77A" d="M152.61 26.11c.35.931 2 3.475 3.59 3.936.932.273 1.898.415 2.87.42.9 0 2.5 0 2.57.391a5.492 5.492 0 0 1-2.9 1.693 6.65 6.65 0 0 1-2.52-.09c-.69-.09-5 .06-7.13-2.494-.9-1.092-1-3.005 1.18-6.18.24-.35.34-.52.53-.841l1.81 3.165Z"></path>
    <path fill="#B7B2AF" d="M161.65 30.857a5.491 5.491 0 0 1-2.9 1.693 6.41 6.41 0 0 1-2.52-.09h-.12a3.01 3.01 0 0 1 .38-2.314c.845.226 1.715.344 2.59.35.9 0 2.5 0 2.57.381"></path>
    <path stroke="#2C2218" stroke-linecap="round" stroke-linejoin="round" stroke-width=".31" d="M156.12 32.45a3.01 3.01 0 0 1 .38-2.314"></path>
    <path stroke="#2C2218" stroke-linecap="round" stroke-linejoin="round" stroke-width=".31" d="M152.6 26.12c.35.931 2 3.475 3.59 3.936.932.273 1.898.415 2.87.42.9 0 2.5 0 2.57.391a5.488 5.488 0 0 1-2.89 1.693 6.65 6.65 0 0 1-2.52-.09c-.69-.09-5 .06-7.13-2.494-.9-1.092-1-3.005 1.18-6.18.24-.35.34-.52.53-.841"></path>
    <path stroke="#2C2218" stroke-linecap="round" stroke-linejoin="round" stroke-width=".31" d="M161.65 30.867a10.55 10.55 0 0 1-5.54.42"></path>
    <path fill="#3F281C" d="M161.65 30.857a5.484 5.484 0 0 1-2.9 1.693c-.838.13-1.693.1-2.52-.09h-.12c-1-.07-5 0-7-2.484-.9-1.092-1-3.005 1.18-6.18.24-.35.34-.52.55-.841a20.66 20.66 0 0 0-1.59 3.345c-.47 1.522.19 2.764 1.71 3.846 1.52 1.082 3.13 1.182 5.11 1.442l.56.07a6.27 6.27 0 0 0 3.2-.31c.505-.198.993-.436 1.46-.711.22 0 .36.13.39.24" opacity=".23"></path>
    <path stroke="#9D7B51" stroke-linecap="round" stroke-linejoin="round" stroke-width=".46" d="M170.42 27.101v.762M171.19 27.502v.761"></path>
    <path stroke="#2C2218" stroke-linecap="round" stroke-linejoin="round" stroke-width=".31" d="M152 23.996c.578.52 1.125 1.071 1.64 1.653M173.93 31.939c-.06.38-.22 1.192-.32 1.682M173.4 22.083c.013.235.068.466.16.681M172.45 22.344c.003.252.069.5.19.72M171.47 22.774c.021.299.113.587.27.842"></path>
    <path stroke="#2C2218" stroke-linecap="round" stroke-linejoin="round" stroke-width=".31" d="M174.37 21.923a7.504 7.504 0 0 0-4.37 1.873M175.66 23.065h1c.33 0 .3-.25.22-.5-.08-.251-.16-.702-.58-.702M169.51 22.674l.43 1.122"></path>
    <path stroke="#2C2218" stroke-linecap="round" stroke-linejoin="round" stroke-width=".31" d="M176.33 21.923a27.045 27.045 0 0 0-2.21-6.26M160.79 15.062a1.046 1.046 0 0 0-.32.3"></path>
    <path fill="#fff" fill-rule="evenodd" d="M134.32 22.063h-4.11v17.438h4.11v-7.722h.26l3.08 7.732h4.75l-4.5-9.015 4.36-8.473h-4.36l-3.34 7.732h-.26v-7.692h.01ZM124 33.521l4.11.491c-.77 3.486-2.57 5.73-6.39 5.73-4.62 0-7-4.007-7-9.015 0-5.008 2.34-9.014 7-9.014 3.75 0 5.62 2.243 6.39 5.478L124 28.193c-.26-1.743-1-4.006-2.29-4.006-1.54 0-2.34 3.004-2.34 6.48 0 3.475.8 6.48 2.34 6.48 1.29.12 2.07-1.873 2.29-3.626Zm-20.51-11.458h-4.36v17.438H103l5.14-10.467h.25l-.26 10.467h4.36V22.063h-3.85L103.5 32.53h-.26l.25-10.467ZM89.63 37.267c1.8 0 2.57-3.005 2.57-6.48 0-3.476-.77-6.48-2.57-6.48-1.8 0-2.57 3.005-2.57 6.48 0 3.476.77 6.48 2.57 6.48Zm-7.19-6.48c0-5.008 2.57-9.014 7.19-9.014 4.62 0 7.19 4.006 7.19 9.014 0 5.008-2.57 9.014-7.19 9.014-4.62 0-7.19-4.036-7.19-9.024v.01Zm-2.31-8.714H67.81v17.428h4.37V25.048h3.59V39.5h4.36V22.073Zm-39.29 0h-4.37v17.428h4.36v-7.722h3.59v7.732h4.36V22.063h-4.35v6.73h-3.59v-6.72Zm-20.8 0h4.36l-.26 10.467h.26l5.14-10.467h3.85v17.428H29l.26-10.467H29l-5.11 10.467H20V22.063l.04.01Zm-16.7 0v4.738h.25l3.34-4.738h4.62l-6.16 5.469.26.25 11.3-5.729v4.007l-10 3.485v.25l10-.87v3.735l-10-.871v.25l10 3.486v4.006L5.64 33.76l-.26.251 6.16 5.479H6.93l-3.34-4.738h-.25v4.738H0V22.053h3.34v.02Zm55 15.204c1.8 0 2.57-3.005 2.57-6.48 0-3.476-.77-6.48-2.57-6.48-1.8 0-2.57 3.005-2.57 6.48 0 3.476.73 6.47 2.53 6.47l.04.01Zm-7.19-6.48c0-5.008 2.57-9.014 7.19-9.014 4.62 0 7.19 4.006 7.19 9.014 0 5.008-2.57 9.014-7.19 9.014-4.62 0-7.19-4.006-7.19-9.014Z" clip-rule="evenodd"></path>
    <path fill="#F6D72C" d="M101 8.041c.073-.096.153-.186.24-.27a.422.422 0 0 1 .31-.12c-.334.193-.524.357-.57.49a4.897 4.897 0 0 1-.19.451c.132-.159.287-.297.46-.41.16-.103.299-.236.41-.391.14-.1.296-.23.47-.39l.51-.452c.15-.138.31-.266.48-.38a.779.779 0 0 1 .4-.15c.11.005.217.04.31.1.202-.223.451-.398.73-.511.141-.055.289-.092.44-.11.126 0 .19.026.19.08a.226.226 0 0 1-.07.12l-.12.1a2.58 2.58 0 0 0 .75-.12l.71-.23a.943.943 0 0 1 .07.2.84.84 0 0 0 .07.2h.66a.25.25 0 0 1 .17.06.25.25 0 0 0 .17.06h.28l-.11.13a.217.217 0 0 0-.06.14l-.26.071a.6.6 0 0 0-.24.13l.31.1c.195-.056.397-.09.6-.1h.65c-.141.057-.289.09-.44.1l-.48.06h.8-1.25l-.21.15h.52c-.567.114-1.11.244-1.63.391-.503.143-.991.33-1.46.561a7.61 7.61 0 0 0-1.28.801 5.81 5.81 0 0 0-1.1 1.122.587.587 0 0 0-.14.23.757.757 0 0 0 0 .19c-.007.07-.007.141 0 .211.009.09.009.18 0 .27v.16c.013.06.013.122 0 .181-.114.4-.204.791-.27 1.172a6.379 6.379 0 0 0-.11 1.162c-.002.194.029.387.09.57.055.159.086.324.09.492a.74.74 0 0 0 .18.47c.115.148.249.28.4.39.139.105.29.192.45.261a.99.99 0 0 0 .34.1h.5c.39.003.779-.037 1.16-.12.34-.078.675-.182 1-.31.333-.127.666-.27 1-.43.333-.161.72-.325 1.16-.492-.487.294-.954.551-1.4.772-.447.22-.924.427-1.43.62.177-.003.352-.034.52-.09a6.431 6.431 0 0 0 1.15-.48l.48-.26-.32.2-.39.22.87-.44h.09a.92.92 0 0 0 .34-.131l.52-.3.5-.321.27-.19a4.75 4.75 0 0 1-.67.49c-.234.14-.452.305-.65.491l.54-.27c0 .06-.09.16-.27.29-.21.145-.427.279-.65.401l-.78.42c-.267.14-.494.251-.68.331a4.546 4.546 0 0 1-.86.28l-.84.2-.09.121c.273-.009.545-.05.81-.12.34-.087.673-.19 1-.31l1-.371.78-.3c-.787.387-1.487.72-2.1 1a4.473 4.473 0 0 1-1.82.402 5.052 5.052 0 0 1-1.74-.331 3.735 3.735 0 0 1-1.46-.921c.275.445.68.794 1.16 1.001a5.477 5.477 0 0 0 1.72.42h.42s0 .06-.14.071h-.26a4.663 4.663 0 0 1-1.93-.47 4 4 0 0 1-1.49-1.303l-.09-.15a4.327 4.327 0 0 1-.51-1.282 6.706 6.706 0 0 1-.13-1.362v-1.002c.005-.286.035-.57.09-.851a4.345 4.345 0 0 1 .72-1.643l.21-.39-.21.15.17-.47c.039-.135.096-.263.17-.382-.06 0-.09-.02-.09-.06a.317.317 0 0 1 .06-.15l.13-.19.13-.17a.277.277 0 0 0 .06.34Zm.71 9.195a3.067 3.067 0 0 1-.91-.772 4 4 0 0 1-.58-1.001 4.675 4.675 0 0 1-.29-1.002 6.025 6.025 0 0 1-.08-.941c0-.242.02-.483.06-.721.04-.245.06-.493.06-.742a1.39 1.39 0 0 0 0-.18 1.292 1.292 0 0 1 0-.18.582.582 0 0 1 .17-.39c.115-.132.204-.285.26-.451.036-.119.066-.24.09-.361a1.54 1.54 0 0 1 .06-.23c0-.074.03-.154.09-.24l.15-.371c.13 0 .19-.07.2-.11.029-.071.066-.138.11-.2a1.243 1.243 0 0 0-.28.21 3.23 3.23 0 0 0-.32.35 2.16 2.16 0 0 0-.26.41.998.998 0 0 0-.11.411.81.81 0 0 0-.29.461c-.04.178-.06.359-.06.54v.481c0 .191-.06.381-.08.562-.012.18-.012.36 0 .54 0 .359.024.717.07 1.072a4.055 4.055 0 0 0 .9 2.083c.288.323.634.588 1.02.782l.02-.01Zm4.88-9.596a1.785 1.785 0 0 0-.9.2l-.42.241a9.426 9.426 0 0 1 1.3-.44h.02Zm0 .1c0 .09-.09.15-.27.19-.18.038-.357.088-.53.151a.995.995 0 0 1 .41-.18.68.68 0 0 0 .37-.18l.02.02Zm1.32-.17H107.23c.275-.038.552-.059.83-.06l-.15.06Z"></path>
    <path fill="#F6D72C" d="M107.7 17.065H107.99l-.28.15-.01-.15Zm9.15-3.315-.61.33c-.232.077-.454.181-.66.311.182-.001.361-.05.52-.14.161-.091.337-.152.52-.18l-.12.08-.17.08.4-.12c.039.01.08.01.12 0l.33-.15h.07a.534.534 0 0 1-.18.15.994.994 0 0 0-.22.17h.12a.18.18 0 0 0 .12 0 .076.076 0 0 1 0 .06c0 .054-.084.127-.25.22l-.5.29-.52.261-.29.13a.17.17 0 0 0 .07.13l.85-.33a3.717 3.717 0 0 1-.9.581 9.787 9.787 0 0 1-1.16.48h-.14v.06c.288-.155.598-.266.92-.33.126-.01.253-.01.38 0h.09c0 .054-.097.124-.29.21l-.66.281-.72.27-.5.18-1.41.582a.47.47 0 0 1-.25.14l-.25.07c.047.04.108.062.17.06a.411.411 0 0 0-.14.15l-.09.13a.11.11 0 0 1 .008.04.11.11 0 0 1-.008.04.161.161 0 0 1-.06.101.345.345 0 0 0-.08.12.716.716 0 0 0 0-.16.131.131 0 0 1-.013-.055c0-.02.005-.038.013-.055h-.19v.25h.09-.07c-.012.13-.012.26 0 .39v.291c.005.02.005.04 0 .06a.52.52 0 0 0 0 .2c.01.054.01.108 0 .16a1.634 1.634 0 0 1-.31-.77v-.441a.487.487 0 0 0 0-.17h-.07v.27c.015.103.015.208 0 .31a2.93 2.93 0 0 0 0 .351.715.715 0 0 0-.12-.33l.12.52c-.06 0-.09.06-.09.1a.252.252 0 0 0 .07.17.157.157 0 0 1-.14-.08c0-.05-.06-.08-.09-.08h-.17l.17.06a.337.337 0 0 1 0 .1H110.41a.595.595 0 0 0-.08-.13l-.15-.41a2.945 2.945 0 0 1-.13-.45s-.07 0-.12-.08l-.09-.101a1.326 1.326 0 0 1-.21.17c-.08.05-.12.09-.12.12s-.19-.1-.19-.17a.17.17 0 0 1 0-.1h-.14a.36.36 0 0 0-.35.19l-.31-.37a.133.133 0 0 1-.11 0 .132.132 0 0 0-.11 0 .213.213 0 0 0-.12-.06h-.09a1.242 1.242 0 0 0-.14-.29.336.336 0 0 0 0-.1c0-.068-.047-.101-.14-.101a.731.731 0 0 0-.19.13.343.343 0 0 1-.19.09.19.19 0 0 1 .12-.13.272.272 0 0 0 .14-.13.14.14 0 0 1-.08 0h-.08l.28-.13v-.13a.502.502 0 0 0-.19 0 .627.627 0 0 1 .35-.271l.45-.15.59-.21a.165.165 0 0 1-.07-.13c-.049-.49-.072-.981-.07-1.473a5.051 5.051 0 0 0-.14-1.302v-1.192c0-.488-.024-.948-.07-1.382.096-.373.209-.74.34-1.102v-.25c-.094.04-.14.08-.14.12a3.365 3.365 0 0 1-.19-.39.898.898 0 0 1-.07-.351.732.732 0 0 1 .06-.28.9.9 0 0 0 .06-.341 1.386 1.386 0 0 0 0-.34l-.09-.381c0-.14 0-.21.08-.2.089.013.18.013.27 0a.547.547 0 0 1-.08-.311.646.646 0 0 0-.08-.33h.12a.39.39 0 0 1 .26.19.768.768 0 0 0 .17-.331.713.713 0 0 0-.07-.29c.083.01.167.01.25 0h.25a.292.292 0 0 1 0-.11.222.222 0 0 0 0-.13H109.95a.347.347 0 0 0 0-.121l.19.08a.58.58 0 0 0 .19.06h.07c.028.032.048.07.06.11a.216.216 0 0 0 .08.11l.17-.08a.668.668 0 0 1-.06-.24v-.2c.041.044.069.1.08.16a.403.403 0 0 0 .06.16.123.123 0 0 0 .011-.05.124.124 0 0 0-.011-.05v-.22a.085.085 0 0 0-.007.035c0 .012.002.024.007.035.005.01.008.023.008.035a.085.085 0 0 1-.008.035.257.257 0 0 1 0 .14.222.222 0 0 0 0 .13.13.13 0 0 1 .08 0l.08.07a.14.14 0 0 1 0-.09.154.154 0 0 0 0-.09c.05.135.073.277.07.42.008.114.008.228 0 .341a2.143 2.143 0 0 0 0 .32L111 8.523c0 .18-.037.35-.11.51a1.889 1.889 0 0 0 0 .592c.003.22.069.436.19.62.114.169.189.36.22.562.011.173.011.347 0 .52v2.153c-.017.18.014.36.09.522v.13a.477.477 0 0 1-.09.27v.13c.007.13.007.26 0 .391a3.346 3.346 0 0 0 0 .4c-.004.144.02.287.07.421l.09-.08a2.99 2.99 0 0 1 .8-.43c.3-.107.633-.214 1-.321a.41.41 0 0 0 .22-.07.36.36 0 0 1 .15-.07h.14c.177-.002.352-.032.52-.09l.38-.14c.275-.18.58-.308.9-.381.303-.068.595-.176.87-.32h.12a.65.65 0 0 0 .22 0l.07-.09Zm-8.58 3.005c0-.067.046-.114.14-.14h.19a.42.42 0 0 1-.14.13l-.14.1h-.07l.02-.09Zm0 .13h.19l.22-.1.25-.14a4.46 4.46 0 0 1-.59.14h-.09s.04.13.06.13l-.04-.03Zm1-1.392V12.608a2.633 2.633 0 0 0-.09-.7 2.191 2.191 0 0 1-.09-.592.278.278 0 0 1 .08-.19s.06-.12.06-.29v-.521a1.746 1.746 0 0 0-.14-.541l.14-.08a.077.077 0 0 0 0-.06.19.19 0 0 1 0-.1l-.14.14a1.038 1.038 0 0 0 0 .45c.001.08.033.155.09.21a.102.102 0 0 0-.044.037.102.102 0 0 0-.016.054.708.708 0 0 0 0 .13 1.912 1.912 0 0 0 0 .37c.012.134.012.268 0 .401v.521l.09 2.003v1.402l.06.24Zm.28-.521a.234.234 0 0 0-.07-.19.822.822 0 0 0 0 .14c.003.047.003.093 0 .14.015.14.015.281 0 .42-.015.14-.015.282 0 .421-.004.07-.004.14 0 .21.003.07.003.141 0 .211v.29l.24-.1c0-.267-.024-.53-.07-.79a3.984 3.984 0 0 1-.07-.702l-.03-.05Zm.9 4.167a.267.267 0 0 0-.14.08h.38a.149.149 0 0 0-.09 0l-.15-.08Zm.42.1h.07l.07.1-.07-.13h-.07v.03Zm.21.17v.08l-.07-.1h.07v.02Zm.07.06-.07-.06a.311.311 0 0 1 .11.11l-.04-.05Zm.28-13.23-.19.25a.831.831 0 0 1 .07-.31s.08.09.16.11l-.04-.05Zm3.37 9.815-.33.06-.65.21-.62.22-.47.18c-.127.054-.19.088-.19.101h-.09c-.159.02-.314.064-.46.13a1 1 0 0 0-.48.35l-.12-.1-.07.08.19.06.24-.06a.492.492 0 0 0 .26-.15h.07l.19-.06.28-.13.26-.13.14-.06.51-.19.44-.15.42-.15.48-.211Zm-2.62 2.063h.07l.07.06h-.14v-.06Z"></path>
    <path fill="#F6D72C" d="m116.61 7.72.38-.17a.978.978 0 0 1 .12-.15.463.463 0 0 1 .17-.12c.059.08.1.173.12.27a.599.599 0 0 0 .38-.22l.27-.36c.111-.138.247-.254.4-.341.248-.112.519-.16.79-.14.335.004.669.034 1 .09.36.06.737.133 1.13.22a6.004 6.004 0 0 1 2.37 2.414c.474.93.721 1.96.72 3.005a8.54 8.54 0 0 1-.42 2.644 9.955 9.955 0 0 1-1.18 2.444 3.417 3.417 0 0 1-1.07.74 3.717 3.717 0 0 1-1.52.281c-.28 0-.558-.034-.83-.1a5.35 5.35 0 0 1-.78-.25l.67.14c.221.045.445.068.67.07a4.44 4.44 0 0 0 1.47-.25c.445-.143.836-.42 1.12-.792-.32.272-.681.492-1.07.652a3.309 3.309 0 0 1-1.28.25h-.26.41c.139-.006.277-.03.41-.07-.265.039-.532.059-.8.06a3.904 3.904 0 0 1-1.11-.23 5.698 5.698 0 0 1-1-.481l.42.19a3.306 3.306 0 0 1-.88-.861 8.865 8.865 0 0 1-.6-1.002c.107.234.203.467.29.701.09.242.222.466.39.661.03.06.071.115.12.16.049.046.09.1.12.16l-.21-.14-.09-.13a7.004 7.004 0 0 1-.95-1.152 5.775 5.775 0 0 1-.53-1.191 6.604 6.604 0 0 1-.26-1.252 16.695 16.695 0 0 1-.09-1.383v-.71c.008-.232.028-.463.06-.692l-.09.13a1.598 1.598 0 0 1-.12-.48.59.59 0 0 1 .11-.36c.074-.1.154-.193.24-.281.089-.092.172-.19.25-.29a.802.802 0 0 0 .14-.421c.018-.187.055-.372.11-.551.053-.187.213-.28.48-.28l.12-.482-.4.25.09-.2Zm.28 8.634v-.15a9.329 9.329 0 0 1-.75-3.145.275.275 0 0 0 0-.17l-.07-.06-.07-.06a.329.329 0 0 1-.06-.15 4.981 4.981 0 0 1 0-.692 5.273 5.273 0 0 0 0-.71v-.422l.17-.17v-.13a.654.654 0 0 0-.24.34 1.515 1.515 0 0 0 0 .381V11.516a2.226 2.226 0 0 0-.07.24 1.015 1.015 0 0 0 0 .221c-.001.392.019.783.06 1.172.023.357.069.712.14 1.062.09.341.204.676.34 1.001.157.393.341.774.55 1.142Zm4.13.791a1.21 1.21 0 0 0 .33-.15c.099-.065.202-.122.31-.17a.555.555 0 0 1-.18.24l-.25.2h.09c.235-.114.44-.282.6-.49.145-.19.269-.395.37-.611l-.07-.12c-.165.226-.345.44-.54.64a1.86 1.86 0 0 1-.78.471 2 2 0 0 0 .73-.63c.172-.252.31-.524.41-.812.103-.29.187-.589.25-.891.061-.292.141-.58.24-.862v-.17c-.08.143-.143.294-.19.45-.047.161-.09.325-.13.492a2.636 2.636 0 0 1-.17.48c-.072.156-.17.299-.29.421v-.15c.14-.514.28-.975.42-1.382.142-.413.213-.846.21-1.282v-.601a1.84 1.84 0 0 1-.18-.611v-1.282a2.565 2.565 0 0 0-.07-.611l-.07.08v.06a4.28 4.28 0 0 1-.61-.621 1.2 1.2 0 0 0-.78-.42l-.12-.12a.19.19 0 0 1-.07-.151l-.59.15-.17-.12.12-.13h-.07l-.17.15v-.15a.19.19 0 0 1 0-.1.584.584 0 0 1 .21-.371 5.433 5.433 0 0 0-1.4 1.382 3.814 3.814 0 0 0-.7 1.703c.018.196.076.387.17.56.093.176.157.366.19.562V13.119c0 .14 0 .29.06.43.06.141.06.321.11.532a.702.702 0 0 0 .09.27.513.513 0 0 1 .07.27v.12c.01.309.123.605.32.842.193.24.377.487.55.741.073.19.216.344.4.43.199.108.416.176.64.201h.35l.59-.08c-.287.142-.6.22-.92.23H119.74a.556.556 0 0 0 .41.16h.58l-.12.07h-.09l.52-.12-.02-.07Zm-2.5 0h-.12c.12.126.254.237.4.331a.93.93 0 0 0 .52.15l-.5-.15.14-.06h.09l-.47-.25-.06-.02Zm3.7-3.034v.06c.074-.31.178-.612.31-.902.111-.228.169-.478.17-.73a2.088 2.088 0 0 0-.19-.812l-.26-.851v-.29a1.01 1.01 0 0 1 .08-.301.706.706 0 0 0 .06-.3.483.483 0 0 0-.19-.391v-.06l-.07-.15-.07.1a.261.261 0 0 0 0 .13.595.595 0 0 0 0 .23l.09.21v.18c.008.104.008.208 0 .311a2.012 2.012 0 0 0 0 .31c.002.341.059.68.17 1.002.103.29.161.594.17.902.006.207-.025.414-.09.61a3.973 3.973 0 0 0-.18.792v-.05ZM124.79 9.994a.241.241 0 0 1 0 .15.207.207 0 0 0 0 .13v-.28Zm.17.691h-.07c-.06 0-.11 0-.13-.13l-.06-.21c.037.055.08.106.13.15.07.05.128.116.17.19h-.04Zm8.16 7.522v-.1.06l-.17-.44a3.41 3.41 0 0 1-.12-.341 1.714 1.714 0 0 0-.09-.26c0 .14.07.28.11.41.04.14.06.285.06.43l-.07-.15v.1-.13c.027.051.047.105.06.16a1.095 1.095 0 0 0 0 .141s-.07.06-.07.08a.679.679 0 0 0 0 .22.613.613 0 0 1 0 .2v-.08a.381.381 0 0 1-.07-.15.236.236 0 0 0-.07-.13v.21s-.08-.07-.15-.21l-.24-.47c-.086-.174-.166-.341-.24-.501l-.13-.3v.39l-.14-.5h-.09c0 .15.09.31.12.45s.071.277.12.41a10.467 10.467 0 0 1-.64-1.161c-.197-.42-.417-.828-.66-1.222.072.133.135.27.19.41.06.16.12.31.17.461l.12.39c.006.067.006.134 0 .201v.06s-.09-.07-.17-.21a7.44 7.44 0 0 1-.26-.501l-.28-.58a3.23 3.23 0 0 0-.24-.442 40.883 40.883 0 0 0-1.08-1.752l-1.16-1.753-.09-.15v.12l-.21-.12a.463.463 0 0 1-.17-.12v.06c.15.243.245.517.28.8 0 .275.04.548.12.822.064.368.104.739.12 1.112v1.112a.228.228 0 0 1 0 .11.228.228 0 0 0 0 .11c0 .503.04 1.005.12 1.502.081.51.121 1.026.12 1.543.008.137.008.274 0 .41a3.515 3.515 0 0 0 0 .411v1.181a.799.799 0 0 0-.07.341c.017.113.017.228 0 .341V20.19a4.446 4.446 0 0 0-.12-1.001.317.317 0 0 0 0 .13v.12a3.346 3.346 0 0 0 0 .4c.009.154.009.308 0 .462v.21a.752.752 0 0 1 0 .25l-.09-.5v.56c0 .09-.09.07-.09.1v.642a.407.407 0 0 1 0 .17 1.215 1.215 0 0 1 0-.38.562.562 0 0 0-.11-.361v.27s-.09-.13-.14-.38c-.05-.25-.09-.531-.13-.832-.04-.3-.07-.59-.09-.861-.02-.27 0-.42 0-.46a.567.567 0 0 0 0-.131s-.05-.07-.13-.11V20a11.046 11.046 0 0 1-.35-1.793 38.98 38.98 0 0 1-.14-1.753v-.19a.676.676 0 0 0 0 .11.708.708 0 0 1 0 .13c.008.14.008.281 0 .421-.007.14-.007.28 0 .42v.962s-.07-.13-.12-.38c-.05-.25-.09-.581-.14-1.002-.05-.42-.1-.861-.15-1.372-.05-.51-.11-1.002-.15-1.542-.04-.541-.09-1.002-.14-1.493-.05-.49-.09-.891-.12-1.232v-.25l-.09.13a1.685 1.685 0 0 1-.18-.34.996.996 0 0 1-.08-.361V9.885a1.3 1.3 0 0 0-.08-.442 1.365 1.365 0 0 1-.08-.46.14.14 0 0 1 .08-.14l.2-.08a.418.418 0 0 1-.12-.31.677.677 0 0 0 0-.292.2.2 0 0 1 .14-.08.14.14 0 0 1 .09 0l.09.09a.457.457 0 0 0-.51-.27.697.697 0 0 0-.07-.29h.4c.094 0 .14-.06.14-.18 0 0 0-.06.09-.08.09-.02.09-.061.09-.131h.37c.019.07.061.13.12.17l.17-.1a.078.078 0 0 1-.007-.03c0-.01.003-.02.007-.03a.206.206 0 0 1 0-.07.166.166 0 0 0 0-.07.603.603 0 0 0 0-.12.603.603 0 0 1 0-.12c.036.034.057.08.06.13a.43.43 0 0 0 .06.17.487.487 0 0 0 0-.17v-.12.44l.12.1.05-.2c.065.159.095.33.09.5l.07.06a.11.11 0 0 0 0-.08V8.503 7.92h.09l-.09-.1v-.1l.09.08a.14.14 0 0 0 0-.12.22.22 0 0 1 .12 0l.07.12c.308.262.574.57.79.911.214.34.404.675.57 1.002.167.327.334.62.5.881.142.243.35.441.6.571.147.068.279.163.39.28.11.117.208.244.29.381l-.17-2.003V8.221l-.12 1.002c0-.05 0-.15-.07-.31s-.06-.32-.08-.491c-.02-.17 0-.34-.06-.491-.06-.15 0-.26 0-.33a2.712 2.712 0 0 1 0-.361 2.764 2.764 0 0 0 0-.34 1.328 1.328 0 0 0-.06-.381 1.502 1.502 0 0 1-.06-.41.147.147 0 0 1 .005-.048.119.119 0 0 1 .105-.083l.2-.06a.191.191 0 0 1-.07-.15.572.572 0 0 1 0-.21.595.595 0 0 0 0-.231v-.06a.22.22 0 0 1 .14-.06v.14a.327.327 0 0 0 .09.2.16.16 0 0 0 .07-.12.34.34 0 0 0 0-.09.34.34 0 0 1 0-.09c.034-.093.074-.183.12-.27.058-.103.099-.215.12-.331a.11.11 0 0 1 .067.017.11.11 0 0 1 .043.053l.15.18.07.15a.111.111 0 0 0 .041.06c.02.014.045.022.069.02a.933.933 0 0 1 .09-.37l.14-.31s.07.12.07.27v.671c0 .02.13-.19.14-.46a3.66 3.66 0 0 1 .14-.812.557.557 0 0 1 .24.4v.391a.274.274 0 0 1 .08-.08l.08-.06a.093.093 0 0 1 0 .08v.32a1.844 1.844 0 0 1-.06.391 8.223 8.223 0 0 0-.14 1.232v1.232c.006.168.026.336.06.5l.13.692.14.701c.047.227.087.404.12.531.047.487.09.951.13 1.392.04.44.06.955.06 1.543a.173.173 0 0 1 0 .11.154.154 0 0 0 0 .09 8.5 8.5 0 0 0 .11 1.342c.07.424.107.852.11 1.282a5.01 5.01 0 0 0 0 .671c0 .234.04.457.12.671v.11a.228.228 0 0 1 0 .11c.006.02.006.041 0 .06a.122.122 0 0 0 0 .06.603.603 0 0 0 0 .12c.004.04.004.081 0 .121l.18.08Zm-7-1.212a.269.269 0 0 1 0-.08.269.269 0 0 0 0-.08v-1.613c0-.534-.04-1.071-.12-1.612a1.132 1.132 0 0 0-.12-.48 1.01 1.01 0 0 1-.12-.371.284.284 0 0 1 .06-.17.284.284 0 0 0 .06-.17 5.779 5.779 0 0 0 0-.672 1.657 1.657 0 0 0-.21-.671c.06-.05.09-.1.09-.13a.356.356 0 0 0 0-.13.604.604 0 0 0-.13.15.865.865 0 0 0 0 .19v.38a.405.405 0 0 0 .11.301.123.123 0 0 0-.011.05c0 .018.004.035.011.05l.38 5.058Zm1.23-9.565.14.21c.053.074.099.15.14.23a1.053 1.053 0 0 1-.24-.22 1.711 1.711 0 0 0-.24-.24.3.3 0 0 1 .14 0l.06.02Zm-.19 3.706a.264.264 0 0 0 .14.15l-.14-.15Zm0-3.205h.09v-.03l-.07-.1c-.03.1-.04.1-.06.1l.04.03Zm.12-.17h-.07a.048.048 0 0 0 .03-.01l.04.01Zm.07-.671.07.08-.14.27a.915.915 0 0 1 .03-.36l.04.01Zm.47 1.121a.401.401 0 0 0 .08.18l.19.261.25.31a4.245 4.245 0 0 0-.5-.77s-.06-.01-.06.01l.04.01Zm2.72 7.703a8.747 8.747 0 0 0-.53-1.312l-.65-1.313a1.152 1.152 0 0 0-.18-.2l-.27-.26-.26-.25c-.08-.08-.12-.13-.12-.17a.166.166 0 0 0 0-.071.622.622 0 0 0-.06-.13 3.462 3.462 0 0 0-.36-.55 1.057 1.057 0 0 0-.24-.221v-.1c0 .01 0 0-.07-.08s0 .15 0 .13c.08.293.197.474.35.54a.63.63 0 0 0 .13.24l.29.391.31.38c.065.071.122.148.17.231.254.414.487.818.7 1.212.214.394.42.798.62 1.212l.17.32ZM127.85 8.2a.18.18 0 0 1 .12 0 .26.26 0 0 1 .21.15l.17.291a.943.943 0 0 1-.27-.23.488.488 0 0 0-.23-.23v.02Zm1.93-.71V7.2l.14-.08a.295.295 0 0 1-.06.2.244.244 0 0 0-.07.15l-.01.02Zm0 0a.792.792 0 0 1 .26.37l-.04.04c-.08 0-.126-.057-.14-.17a.738.738 0 0 0-.07-.26l-.01.02Zm1.16 5.148v.06-.772a2.32 2.32 0 0 0-.11-.5 2.638 2.638 0 0 1-.11-.401.324.324 0 0 1 .06-.18.382.382 0 0 0 .06-.22V9.433c0-.241-.02-.471-.06-.692a1.41 1.41 0 0 0-.11-.46.217.217 0 0 0 .062-.066.213.213 0 0 0 .028-.085.166.166 0 0 0 0-.07.166.166 0 0 1 0-.07c-.045.05-.085.103-.12.16a.331.331 0 0 0 0 .14v1.313c-.004.06-.004.12 0 .18.01.06.038.116.08.16a.132.132 0 0 0-.068.06.134.134 0 0 0-.012.09v1.542c.021.2.058.398.11.592.027.145.093.28.19.39v.02Zm1.56-7.482h-.07v.1a1.51 1.51 0 0 1 0 .19v.39c.032-.107.056-.218.07-.33a2.085 2.085 0 0 1 0-.37v.02Zm.19-.37-.19.11v-.181l.19.07Zm0 .5-.07.29a.433.433 0 0 1 0-.22.234.234 0 0 0-.013-.108.243.243 0 0 0-.057-.092h.13l.01.13ZM133.44 10.204l.17-.06a3.824 3.824 0 0 1 0-.4v-.842a.813.813 0 0 1 0-.26s.12-.07.31-.11a.361.361 0 0 1 0-.19 1.62 1.62 0 0 1 0-.22.249.249 0 0 1 .09-.181.526.526 0 0 1-.01-.04.109.109 0 0 0 .011-.05.11.11 0 0 0-.011-.05.166.166 0 0 0 .07-.13l-.07-.1h-.28c0-.019.005-.037.016-.051a.082.082 0 0 1 .044-.03.226.226 0 0 0 .11-.08h-.21a.42.42 0 0 1 .21 0c.06 0 .11 0 .14-.12h-.17c.121-.078.258-.13.4-.15.167-.014.334-.014.5 0a.547.547 0 0 0 .32-.11.552.552 0 0 1 .32-.11c.208.003.413-.042.6-.13.136-.076.286-.12.44-.131a3.74 3.74 0 0 0 .56-.16c.274-.054.544-.114.81-.18l1-.261a.09.09 0 0 0 .07 0c.342.006.682-.055 1-.18.281-.116.578-.183.88-.2.29-.009.576-.06.85-.15h.45a3.602 3.602 0 0 1-.54.15 1.464 1.464 0 0 0-.52.22 1.3 1.3 0 0 0 .4-.07c.146-.047.298-.07.45-.07l-.26.12.31-.08.1.1h.38a.295.295 0 0 1-.17.1.38.38 0 0 0-.19.12h.16s-.07.15-.21.21a2.777 2.777 0 0 1-.48.16l-.48.14c-.14.054-.21.104-.21.151l.83-.15-1 .39c-.273.094-.606.194-1 .3.16-.02.321-.02.48 0 .173.004.345-.02.51-.07h.14a.15.15 0 0 1 .09 0c0 .054-.106.114-.32.181-.213.067-.48.14-.8.22l-1 .24-1 .231-1.14.24.09.08-.28.211a.54.54 0 0 1-.31.06H136c-.08 0-.13.1-.15.3a5.952 5.952 0 0 0 0 .682v.78c.012.191.012.382 0 .572l.34-.08a.467.467 0 0 0 .27-.23.74.74 0 0 1 .28-.231c.15-.08.308-.144.47-.19.178-.054.358-.098.54-.13.157-.013.314-.013.47 0h.07c.264-.001.527-.038.78-.11.231-.07.47-.107.71-.11h1.05l-.42.06a.943.943 0 0 0-.4.12h.45a.71.71 0 0 1 .21 0 .654.654 0 0 0-.24.06h.21v.06h.36a.29.29 0 0 1-.14 0s-.09 0-.12.1c0 0-.06.11-.17.14l-.35.1-.35.1c-.106 0-.163.044-.17.13h.61a.556.556 0 0 0-.17.09l-.12.07-.55.191a2.32 2.32 0 0 1-.55.12H139.61c.08 0 .12 0 .12.06s-.09.06-.26.11l-.58.14-.61.13-.37.081-.62.19-.55.19.09.06c-.09.08-.14.141-.14.181 0 .04-.09.07-.26.07a.224.224 0 0 0-.19.1c0 .06-.08.1-.09.1a.15.15 0 0 1-.09 0v.06c0 .234.027.478.08.732a1.67 1.67 0 0 1 0 .73.558.558 0 0 1 0 .231.444.444 0 0 0 0 .17c.001.194.028.386.08.571l.15.571c.117-.024.231-.061.34-.11a.352.352 0 0 0 .2-.24.762.762 0 0 1 .35-.33c.182-.094.373-.167.57-.221.195-.054.392-.097.59-.13l.42-.09a.22.22 0 0 1 .14-.06c.24-.011.479-.048.71-.11l.91-.221.87-.22c.202-.06.41-.098.62-.11.15.016.301.016.45 0 .15-.018.301-.018.45 0h.19l.21.06-.55.07c-.181.014-.36.054-.53.12h.57a.846.846 0 0 1 .24 0H143a.23.23 0 0 0-.12 0h.28s0 .06.07.06h.3a.15.15 0 0 1 .09 0 .481.481 0 0 1-.2 0 .22.22 0 0 0-.18.09c.09 0 .14 0 .14.06s-.07.12-.21.16l-.46.13-.45.11c-.133 0-.2.037-.2.11h.66c-.313.101-.59.201-.83.301a3.76 3.76 0 0 1-.83.22.149.149 0 0 0-.09 0H142v.06c0 .06-.16.081-.48.161l-1.08.29-1.13.301c-.203.044-.403.1-.6.17l-.72.24a3.82 3.82 0 0 0-.67.301l.12.06-.09.08v.1c0 .1 0 0-.12.08l-.25.13-.25.121c-.08 0-.12.05-.12.07l-.08-.06-.08-.08a.167.167 0 0 1-.08.12.261.261 0 0 0-.11.13c-.093 0-.143-.043-.15-.13-.006-.087-.056-.12-.15-.1h.09a.22.22 0 0 1-.14 0c-.11 0-.17.08-.17.15l-.33-.21a.462.462 0 0 1-.17.1h-.18l-.09.1a.412.412 0 0 1-.14-.09.23.23 0 0 0-.17 0 .207.207 0 0 1 0-.07.166.166 0 0 0 0-.07.206.206 0 0 1 0-.07.514.514 0 0 0-.32.24c-.045.133-.072.27-.08.41v-.15a.444.444 0 0 1 0-.17.346.346 0 0 0 0-.15.924.924 0 0 0-.19.4c.067-.233.179-.45.33-.64v-.15a.5.5 0 0 0-.15.1l-.11.12c.054-.116.118-.226.19-.33.084-.122.189-.227.31-.311l-.09.06-.07-.07a.272.272 0 0 1 0-.09.453.453 0 0 1 0-.09s0-.07.07-.07a8.68 8.68 0 0 1-.48-2.004 67.097 67.097 0 0 1-.18-1.873v.19a.11.11 0 0 1-.008-.04c0-.013.003-.027.008-.04a.294.294 0 0 1 0-.15.294.294 0 0 0 0-.15l-.26.29.11-.19a.464.464 0 0 1 .15-.15v-.4h-.09c.06-.05.09-.101.09-.131a.675.675 0 0 1 0-.21l-.4.35.31-.17c.08-.04.127-.15.14-.33a.42.42 0 0 0 0-.1.603.603 0 0 1 0-.12l-.09.12a1.702 1.702 0 0 1-.15-.451c-.04-.187-.076-.384-.11-.591a.467.467 0 0 0-.14.23l-.01-.3Zm.17.561c-.08 0-.12-.06-.12-.19v-.12a.355.355 0 0 1 .12.14v.17Zm0-3.796h.24-.26.02Zm.19 10.146.21-.17.21-.15a1.484 1.484 0 0 0-.38.46l-.04-.14Zm.3-10.216c0-.06 0-.1.14-.1h.17a.202.202 0 0 1-.071.073.202.202 0 0 1-.099.027.166.166 0 0 0-.14.08V6.9Zm0 .1h.54-.54Zm0 4.608a.485.485 0 0 1 .19-.15.612.612 0 0 0-.08-.13.111.111 0 0 1 0-.08v-.101c.08-.06.12-.11.12-.14a.137.137 0 0 0 0-.08c-.11.08-.17.14-.18.19-.01.05 0 .19 0 .4-.05.07-.04.1-.03.11l-.02-.02Zm.19.4h-.13s-.05 0-.08.09c.013.06.013.121 0 .18V13.1c.001.484.048.967.14 1.442.087.457.197.908.33 1.352-.003-.05-.003-.1 0-.15a.942.942 0 0 0 0-.15 4.285 4.285 0 0 0-.07-.791c0-.26-.09-.491-.12-.711a3.928 3.928 0 0 1 0-.752.823.823 0 0 0-.17-.62 1.612 1.612 0 0 1 0-.17.252.252 0 0 1 .06-.151.437.437 0 0 0 .08-.17.407.407 0 0 0 0-.11.542.542 0 0 1-.02-.08l-.02-.03Zm.66 4.207a2.842 2.842 0 0 1-.15-.44 9.174 9.174 0 0 1-.11-.481c.031.131.051.265.06.4.01.135.03.27.06.4l.09-.06a.195.195 0 0 1-.045.075.195.195 0 0 1-.075.046c.007.05.032.097.07.13l.1-.07Zm0 .12v-.06l-.17.1v.06l.17-.1Zm1.27-7.432-.17.06v-.1h.16s.06 0 .08-.1a.227.227 0 0 1 .13-.13.093.093 0 0 1 0 .08c-.006.08-.073.144-.2.19Zm3.89-1.502H140a5.721 5.721 0 0 0-.66 0c-.266 0-.526.04-.78.12-.253.08-.473.134-.66.16a.665.665 0 0 0-.33.16.207.207 0 0 1-.12.06h-.11a.29.29 0 0 0-.13 0c-.129.014-.256.041-.38.081-.143.03-.279.088-.4.17l-.07-.06a.152.152 0 0 0 0 .06h.12a.869.869 0 0 0 .25 0 .53.53 0 0 0 .18-.08h.09l.4-.07.4-.11 2.31-.49Zm-3.39 5.358-.09.06-.07-.1h.12l.04.04Zm2.5-1.251h-.47l-.55.07a3.353 3.353 0 0 0-.47.12c-.13 0-.21.09-.22.14-.01.05-.06.06-.07.06a.11.11 0 0 1-.08 0 .11.11 0 0 0-.08 0 .755.755 0 0 0-.27.08.606.606 0 0 0-.25.17s-.06-.06-.07-.06a.311.311 0 0 0 .14.06h.15a.154.154 0 0 0 .071-.115.147.147 0 0 0-.011-.068.139.139 0 0 0-.04-.057l.62-.12.52-.14.48-.13c.199-.026.4-.04.6-.04v.03Zm-2.5 1.252v-.22a.109.109 0 0 1 .011.05.109.109 0 0 1-.011.05c.009.029.009.06 0 .09v.03Zm.5.15v.1-.1Zm4.34 2.684c-.208.01-.416.036-.62.08l-.86.18-.86.21-.62.161a.453.453 0 0 0-.25.13.41.41 0 0 1-.13.12.12.12 0 0 1-.08 0 .13.13 0 0 0-.08 0c-.1.026-.197.063-.29.11a.498.498 0 0 0-.29.241l-.09-.06h-.07c.038.04.087.068.14.08h.18c.1 0 .16-.07.18-.13l.46-.13 1-.32c.38-.121.78-.241 1.2-.362a10.66 10.66 0 0 1 1.07-.34l.01.03Zm-4.29 1.873h.14l-.07.06-.07-.06Zm.17-.12v-.1a.111.111 0 0 1 .051.04.109.109 0 0 1 .019.06s0 .08-.09.12l.02-.12Zm.59.21v.1c0 .1-.07 0-.07-.1h.07Z"></path>
  </symbol>
  <symbol fill="" xmlns="http://www.w3.org/2000/svg" viewBox="0 0 24 24" id="icon_movies">
    <path fill-rule="evenodd" clip-rule="evenodd" d="M19.1 7.9H4.9V17.1H19.1V7.9ZM4.9 5.5H2.5V19.5H21.5V5.5H4.9Z" fill=""></path>
  </symbol>
  <symbol fill="" xmlns="http://www.w3.org/2000/svg" viewBox="0 0 24 24" id="icon_tickets">
    <g clip-path="url(#clip0_11_788)">
      <path fill-rule="evenodd" clip-rule="evenodd" d="M13.636 1.01611L15.332 2.71411L16.628 4.01111C16.2555 4.39617 16.0042 4.88209 15.9052 5.40863C15.8062 5.93517 15.864 6.47918 16.0713 6.97321C16.2786 7.46724 16.6263 7.88957 17.0714 8.18783C17.5164 8.48609 18.0393 8.64718 18.575 8.65111C19.2932 8.65755 19.9851 8.38177 20.502 7.88311L21.801 9.17811L23.5 10.8731L21.802 12.5691L12.045 22.3191L10.348 24.0161L8.661 22.3081L7.372 21.0041C7.74452 20.6191 7.99584 20.1331 8.0948 19.6066C8.19377 19.0801 8.13602 18.536 7.92872 18.042C7.72141 17.548 7.37368 17.1257 6.92862 16.8274C6.48356 16.5291 5.96075 16.368 5.425 16.3641C4.70686 16.3578 4.01492 16.6336 3.498 17.1321L2.199 15.8371L0.5 14.1421L2.198 12.4461L11.938 2.71211L13.634 1.01711L13.636 1.01611ZM3.896 14.1401L13.634 4.41011L13.672 4.44811C13.4445 5.21144 13.3976 6.01724 13.5351 6.8018C13.6726 7.58637 13.9907 8.3282 14.4642 8.96868C14.9377 9.60915 15.5538 10.1307 16.2636 10.4921C16.9734 10.8535 17.7575 11.0449 18.554 11.0511C19.0658 11.0558 19.5754 10.984 20.066 10.8381L20.103 10.8741L10.359 20.6121L10.325 20.5771C10.592 19.6883 10.6131 18.7437 10.3859 17.8439C10.1587 16.9441 9.69188 16.1227 9.035 15.4671C8.37978 14.8126 7.55992 14.3472 6.66204 14.1201C5.76415 13.893 4.82161 13.9127 3.934 14.1771L3.897 14.1401H3.896ZM9.151 11.3541L13.151 15.3571L14.849 13.6601L10.849 9.65811L9.151 11.3541Z" fill=""></path>
    </g>
    <defs>
      <clipPath id="clip0_11_788">
        <rect width="24" height="24" fill=""></rect>
      </clipPath>
    </defs>
  </symbol>
  <symbol fill="" xmlns="http://www.w3.org/2000/svg" viewBox="0 0 24 24" id="icon_main">
    <path fill-rule="evenodd" clip-rule="evenodd" d="M12 5.634L18.6 10.034V19.1H14.25V13H9.75V19.1H5.4V10.034L12 5.634ZM9.75 21.5H3V8.75L12 2.75L21 8.75V21.5H9.75Z" fill=""></path>
  </symbol>
  <symbol fill="" xmlns="http://www.w3.org/2000/svg" viewBox="0 0 24 24" id="icon_play">
    <path d="M6 3.375L21 12L6 20.625V3.375Z" fill=""></path>
  </symbol>
  <symbol fill="" xmlns="http://www.w3.org/2000/svg" viewBox="0 0 20 20" id="icon_back">
    <path fill-rule="evenodd" clip-rule="evenodd" d="M12.2993 9.98659L5.55762 3.52742L6.94137 2.08325L14.4414 9.26909L15.2001 9.99617L14.4368 10.7178L6.93678 17.8095L5.56262 16.3566L12.2993 9.98659Z" fill=""></path>
  </symbol>
  <symbol fill="" xmlns="http://www.w3.org/2000/svg" viewBox="0 0 8 14" id="next_slide">
    <path fill-rule="evenodd" clip-rule="evenodd" d="M1.28 0L8 6.99936L1.28062 14L0 12.6708L5.46338 6.99936L0 1.32859L1.28 0Z" fill=""></path>
  </symbol>
  <symbol fill="" xmlns="http://www.w3.org/2000/svg" viewBox="0 0 8 14" id="prev_slide">
    <path fill-rule="evenodd" clip-rule="evenodd" d="M6.72 0L0 6.99936L6.71938 14L8 12.6708L2.53662 6.99936L8 1.32859L6.72 0Z" fill=""></path>
  </symbol>
  <symbol fill="" xmlns="http://www.w3.org/2000/svg" viewBox="0 0 24 24" id="icon_add_watch">
    <path fill-rule="evenodd" clip-rule="evenodd" d="M18.7 9V6.2H21.75V3.8H18.7V0.75H16.3V3.8H13.5V6.2H16.3V9H18.7ZM7.65 3.75H10.5V6.15H7.65V17.052L10.895 15.369L12 14.797L13.105 15.369L16.35 17.052V12H18.75V21L16.35 19.756L12 17.5L7.65 19.756L5.25 21V3.75H7.65Z" fill=""></path>
  </symbol>
  <symbol xmlns="http://www.w3.org/2000/svg" fill="none" viewBox="0 0 122 46" id="rs_school_logo">
    <g clip-path="url(#a)">
      <path fill="#fff" d="m62.986 15.236 5.804-.38c.133.963.376 1.68.773 2.195.64.807 1.523 1.21 2.692 1.21.861 0 1.545-.202 2.009-.627.441-.336.706-.874.706-1.434 0-.538-.243-1.053-.662-1.39-.442-.403-1.479-.806-3.112-1.165-2.67-.605-4.59-1.411-5.716-2.442a4.9 4.9 0 0 1-1.721-3.876c0-1.03.309-2.062.882-2.913.662-.963 1.567-1.725 2.649-2.151 1.17-.515 2.803-.784 4.855-.784 2.516 0 4.436.47 5.76 1.434 1.324.94 2.119 2.464 2.362 4.548l-5.738.336c-.155-.896-.464-1.546-.971-1.971-.508-.426-1.17-.628-2.03-.628-.707 0-1.237.157-1.59.448-.33.27-.552.673-.53 1.12 0 .337.177.65.442.852.287.269.97.515 2.052.74 2.67.582 4.569 1.165 5.738 1.77 1.17.604 2.009 1.344 2.516 2.218.53.896.795 1.927.773 2.98 0 1.255-.353 2.51-1.06 3.562a6.72 6.72 0 0 1-2.935 2.465c-1.258.56-2.847.851-4.745.851-3.354 0-5.672-.65-6.974-1.971-1.302-1.322-2.074-2.98-2.229-4.997ZM1.39 21.868V1.838h10.174c1.876 0 3.333.156 4.326.492a4.579 4.579 0 0 1 2.406 1.838c.64.963.949 2.083.927 3.248.066 1.972-.927 3.854-2.627 4.84-.662.381-1.39.65-2.14.784a6.048 6.048 0 0 1 1.588.74c.376.314.685.672.972 1.053.33.38.618.806.86 1.255l2.958 5.803h-6.93l-3.267-6.162c-.419-.784-.772-1.3-1.103-1.546a2.592 2.592 0 0 0-1.5-.47h-.53v8.133H1.39v.022Zm6.114-11.92h2.582a9.68 9.68 0 0 0 1.61-.269c.398-.067.751-.29.994-.627a2.015 2.015 0 0 0-.22-2.644c-.398-.336-1.17-.515-2.274-.515H7.504v4.055ZM0 39.032l5.804-.381c.133.963.375 1.68.773 2.195.618.807 1.522 1.233 2.692 1.233.86 0 1.545-.202 2.008-.627.442-.359.707-.874.707-1.434 0-.538-.243-1.054-.662-1.39-.442-.403-1.479-.806-3.134-1.165-2.67-.605-4.59-1.411-5.716-2.442A4.9 4.9 0 0 1 .75 31.145c0-1.031.31-2.062.883-2.913.662-.964 1.567-1.726 2.648-2.151 1.17-.515 2.803-.784 4.856-.784 2.516 0 4.436.47 5.76 1.434 1.324.963 2.097 2.464 2.34 4.548l-5.739.336c-.154-.896-.463-1.546-.97-1.972-.486-.425-1.17-.627-2.031-.605-.706 0-1.236.157-1.59.471a1.309 1.309 0 0 0-.529 1.12c0 .336.177.65.441.852.287.269.972.515 2.053.74 2.67.582 4.568 1.164 5.738 1.77 1.17.604 2.008 1.344 2.516 2.217.53.897.794 1.927.794 2.958a6.516 6.516 0 0 1-1.059 3.54 6.72 6.72 0 0 1-2.935 2.465c-1.258.56-2.847.851-4.745.851-3.355 0-5.672-.65-6.974-1.971C.905 42.706.177 41.048 0 39.03Z"></path>
      <path fill="#fff" d="m29.353 37.463 5.34 1.636c-.286 1.367-.882 2.666-1.699 3.809a7.414 7.414 0 0 1-2.869 2.308c-1.147.515-2.604.784-4.37.784-2.14 0-3.906-.314-5.252-.941-1.368-.627-2.538-1.748-3.531-3.339-.993-1.59-1.479-3.63-1.479-6.117 0-3.316.86-5.87 2.604-7.64 1.744-1.77 4.194-2.666 7.372-2.666 2.493 0 4.435.515 5.87 1.523 1.413 1.03 2.472 2.6 3.178 4.706l-5.385 1.21a4.886 4.886 0 0 0-.596-1.345 3.517 3.517 0 0 0-1.258-1.098c-.507-.269-1.081-.38-1.655-.38-1.39 0-2.45.56-3.178 1.702-.552.83-.839 2.151-.839 3.944 0 2.218.331 3.742.993 4.57.663.83 1.59 1.233 2.803 1.233 1.17 0 2.053-.336 2.649-.986.596-.695 1.037-1.658 1.302-2.913Zm12.469-11.83h6.091v7.013h6.665v-7.013h6.136v20.03h-6.136v-8.11h-6.665v8.11h-6.091v-20.03Z"></path>
      <path fill="#fff" d="M59.874 35.648c0-3.27.905-5.825 2.692-7.64 1.788-1.815 4.304-2.734 7.504-2.734 3.289 0 5.804.896 7.592 2.689 1.788 1.793 2.67 4.302 2.67 7.529 0 2.352-.397 4.257-1.17 5.758a8.336 8.336 0 0 1-3.354 3.495c-1.479.83-3.31 1.255-5.495 1.255-2.23 0-4.06-.358-5.517-1.075a8.467 8.467 0 0 1-3.554-3.406c-.904-1.569-1.368-3.518-1.368-5.87Zm6.091.023c0 2.016.375 3.473 1.104 4.369.728.874 1.743 1.322 3.023 1.322 1.302 0 2.317-.426 3.046-1.3.728-.873 1.081-2.42 1.081-4.66 0-1.882-.375-3.271-1.125-4.123-.75-.874-1.766-1.3-3.046-1.3-1.126-.044-2.207.449-2.957 1.323-.75.873-1.126 2.33-1.126 4.369Zm20.613-.023c0-3.27.905-5.825 2.693-7.64 1.787-1.815 4.303-2.734 7.503-2.734 3.289 0 5.827.896 7.592 2.689 1.766 1.793 2.67 4.302 2.67 7.529 0 2.352-.397 4.257-1.169 5.758a8.339 8.339 0 0 1-3.355 3.495c-1.478.83-3.31 1.255-5.495 1.255-2.23 0-4.06-.358-5.517-1.075a8.466 8.466 0 0 1-3.554-3.406c-.904-1.569-1.368-3.518-1.368-5.87Zm6.091.023c0 2.016.375 3.473 1.104 4.369.728.874 1.743 1.322 3.023 1.322 1.302 0 2.317-.426 3.046-1.3.728-.873 1.081-2.42 1.081-4.66 0-1.882-.375-3.271-1.125-4.123-.75-.874-1.766-1.3-3.046-1.3a3.683 3.683 0 0 0-2.957 1.323c-.75.873-1.126 2.33-1.126 4.369Z"></path>
      <path fill="#fff" d="M106.397 25.633h6.091v15.101H122v4.93h-15.625V25.633h.022Z"></path>
      <path fill="#141414" d="M99.683 24.477c6.133-4.692 8.024-12.646 4.224-17.765-3.8-5.12-11.851-5.466-17.984-.774C79.791 10.63 77.9 18.584 81.7 23.703c3.8 5.12 11.852 5.466 17.984.774Z"></path>
      <path stroke="#fff" stroke-miterlimit="10" stroke-width="2" d="M99.683 24.477c6.133-4.692 8.024-12.646 4.224-17.765-3.8-5.12-11.851-5.466-17.984-.774C79.791 10.63 77.9 18.584 81.7 23.703c3.8 5.12 11.852 5.466 17.984.774Z"></path>
      <path fill="#fff" d="m86.6 13.735 2.208-1.568 2.714 3.92c.463.628.817 1.3 1.081 2.04.155.56.11 1.165-.11 1.703a3.634 3.634 0 0 1-1.368 1.635c-.728.515-1.346.807-1.876.896-.508.09-1.037 0-1.523-.224a3.7 3.7 0 0 1-1.346-1.142l1.898-1.793c.154.247.353.47.574.65.154.112.33.18.53.18a.69.69 0 0 0 .419-.158.745.745 0 0 0 .353-.672 2.268 2.268 0 0 0-.464-1.053l-3.09-4.414Zm6.621 2.487 2.009-1.613c.22.269.507.47.816.582.442.135.905.045 1.28-.246.265-.18.486-.426.574-.74a.789.789 0 0 0-.485-.985c-.067-.023-.133-.045-.199-.045-.265-.023-.728.09-1.412.38-1.126.471-2.009.65-2.67.583a2.125 2.125 0 0 1-1.59-.963 2.442 2.442 0 0 1-.42-1.277c0-.516.133-1.031.42-1.457a5.6 5.6 0 0 1 1.545-1.523c.927-.65 1.743-.964 2.45-.964.706 0 1.368.336 1.986 1.03l-1.986 1.592c-.398-.516-1.148-.628-1.656-.224l-.066.067c-.22.134-.375.336-.463.582a.59.59 0 0 0 .088.538.49.49 0 0 0 .375.202c.177.022.486-.067.927-.269 1.104-.47 1.942-.74 2.516-.829.486-.09.993-.045 1.457.157.419.18.772.493 1.015.874.309.448.485.986.508 1.546a2.855 2.855 0 0 1-.442 1.635 5.438 5.438 0 0 1-1.5 1.524c-1.214.851-2.208 1.21-3.002 1.075a3.23 3.23 0 0 1-2.075-1.232Z"></path>
    </g>
    <defs>
      <clipPath id="a">
        <path fill="#fff" d="M0 0h122v46H0z"></path>
      </clipPath>
    </defs>
  </symbol>
</svg>